<?xml version="1.0" encoding="UTF-8"?>
<svg id="Layer_1" xmlns="http://www.w3.org/2000/svg" version="1.1" viewBox="0 0 1080 1080">
  <!-- Generator: Adobe Illustrator 29.7.1, SVG Export Plug-In . SVG Version: 2.1.1 Build 8)  -->
  <defs>
    <style>
      .st0 {
        fill: #f8eacb;
      }

      .st1 {
        fill: #7f5528;
      }

      .st2 {
        fill: #fff;
      }

      .st3 {
        fill: #9b9b9b;
      }

      .st4 {
        fill: #ff4d2d;
      }

      .st5 {
        fill: #0d422f;
      }

      .st6 {
        fill: #333;
      }

      .st7 {
        fill: #ff9d28;
      }

      .st8 {
        fill: #604619;
      }

      .st9 {
        fill: #b5b5b5;
      }
    </style>
  </defs>
  <!-- Fundo removido para transparência -->
  <g>
    <g>
      <path class="st6" d="M-707.08,264.8c-16.72-1.7-30.68,9.64-30.65,23.97.03,14.19,12.11,24.59,28.72,24.35,16.73-.24,31.36-9.1,31.47-21.5.11-12.52-12.71-25.1-29.55-26.82h0Z"/>
      <g>
        <path class="st6" d="M-591.44,328.98c5.68-.38,8.52-.55,14.21-.82-1.64-9.17-2.61-14-4.15-23.63-4.04,9.84-5.9,14.84-10.06,24.45Z"/>
        <path class="st6" d="M-377.59,315.22c-1.05-5.48-6.4-34.33-6.4-34.33,0,0-16.62-19.92-55.26-23.32-25.96-2.29-208.12-7.22-208.12-7.22,0,0-3.86-10.72-44.07-32.33-84.68-45.52-208,5.84-204.98,13.32l27.08,195.53s75.88-66.78,159.39-63.67c27.71,1.03,5.88,20.68,5.88,20.68,0,0,11.73-3.6,73.16-.05,61.44,3.55,152.78-2.6,206.3,6.01,53.52,8.6-2.39,32.99-2.39,32.99,0,0,82.44-7.08,110.83-16.89,49.45-17.09,88.57-43.16,99.81-86.95-53.38,18.76-123.39,12.23-161.24-3.76h.01ZM-770.95,345.43c-24.33,5.24-48.45,10.96-72.63,16.87-.44-12.32-.08-18.22.45-29.66,9.91-2.07,14.92-3.11,25-5.05,1.2-21.14.91-30.66.35-51.14-4.2,3.71-6.28,5.61-10.42,9.47-4.31-8.77-6.48-13.26-10.87-22.31,10.82-10.16,16.37-15.02,27.56-23.93,5.23-.19,7.85-.25,13.09-.32.82,28.24,1.88,56.42-.08,84.64,11.44-1.97,17.2-2.88,28.72-4.41-.76,9.88-1.24,14.95-1.17,25.83h0ZM-709.65,335.63c-27.15,2.2-47.45-19.59-47.4-46.05.05-27.65,23.42-50.15,51.01-45.79,24.57,3.89,48.76,25.87,48.4,50.57-.35,24.42-29.1,39.41-52.01,41.27ZM-572.2,358.52c-1.06-6.06-1.5-8.84-2.37-14.28-9.86.55-14.79.91-24.61,1.76-2.6,5.81-3.93,8.79-6.42,15.3-4.76.5-7.14.76-11.89,1.33,10.16-25.56,22.15-50.33,32.24-75.91,0-.04,0-.06.01-.11,4.83-.15,7.25-.2,12.08-.28,0,.04,0,.06-.01.11,4.4,23.79,8.54,47.62,12.89,71.41-4.78.23-7.16.36-11.93.66h0ZM-507.54,356.97c-2.78-.05-4.17-.07-6.95-.09-8.19-14.42-17.16-28.37-25.35-42.78-1.36,14.36-2.98,28.69-4.25,43.06-4.34.21-6.52.32-10.85.59,2.27-23.84,5.57-47.58,7.49-71.44,2.84.05,4.26.09,7.1.17,7.91,14.22,15.6,28.6,24.22,42.41,1.04-13.72,2.21-27.43,2.9-41.17,4.05.26,6.07.4,10.12.71-.93,22.88-3.14,45.7-4.42,68.56v-.02ZM-474.08,356.71c-17.58,1.21-26.69-19.64-26.04-33.75.64-13.89,11.76-34.39,28.7-32.04,15.33,2.14,25.65,19.53,25.59,34.29-.06,15.41-12.67,30.42-28.24,31.49h-.01ZM-415.12,358.77c-16.4-1.94-25.59-10.54-25.97-10.91,2.46-4.75,3.69-6.91,6.11-11.23,0,0,6.89,6.1,19.83,7.77,6.82.88,11.39-.36,11.35-2.75-.04-2.31-9.02-5.69-12.72-6.94-9.92-2.8-20.59-8.37-19.94-20.39.6-11.25,11.23-17.82,21.81-15.53,11.91,2.57,18.09,8.71,18.78,9.47-2.08,4.1-3.22,6.17-5.45,10.35.02.04.04.06.06.1-.06-.1-4.37-4.39-13.61-6.06-6.53-1.18-11.23.7-11.32,2.96-.09,2.34,7.77,4.5,11.35,5.87,10.4,3.94,21.1,10.72,21.57,22.52.44,11.06-12.26,15.92-21.84,14.79v-.02Z"/>
        <path class="st6" d="M-472.06,306.32c-9-.57-17.27,7.31-17.59,17.02-.32,9.62,6.97,17.54,16.17,17.59s17.2-7.2,17.33-16.34c.13-9.23-6.91-17.7-15.91-18.27Z"/>
      </g>
      <path d="M-633.29,357.19c8.57-13.37-5.4-77.9-5.4-77.9l-9.22-29.2s22.96,88.67,9.31,100.36-53.97,3.63-71.52,3.96c.62,1.23,11.23,9.39,4.29,29.26,34.21-3.17,63.98-13.12,72.55-26.49h-.01Z"/>
      <path d="M-376.95,322.28l-7.8-41.72s20.07,106.3,7.62,111.2c-12.45,4.89-35.55-.35-57.5-3.44,7.1,17.72,7.08,34.34,7.08,34.34,0,0,39.68-4.21,55.66-24.94,9.01-11.7-5.05-75.44-5.05-75.44h-.01Z"/>
    </g>
    <path d="M-861.39,429.9c3.07-1.48-24.09-208.08-24.09-208.08l-14.01.7,27.43,208.74,10.68-1.36h-.01Z"/>
    <polygon points="-911.94 192.97 -918.49 209.67 -909.98 225.38 -893.87 232.65 -883.89 225.79 -872.48 213.14 -881.93 190.08 -899.71 186.75 -911.94 192.97"/>
    <g>
      <path d="M-335.21,489.63c0-.24,7.78-31.29,8.58-34.65,5.14-20.29,11.15-51.9,13.08-68.74,1.29-11.63,1.2-41.47-.08-49.74-1.45-8.74-5.06-17.97-8.82-22.22l-3.13-3.45-.32,13.23c-.4,12.99-2.25,24.87-3.93,24.87-.4,0-.72-1.52-.72-3.37,0-2.57-.64-4.41-2.57-7.22-1.44-2.17-2.89-3.85-3.13-3.85-1.28,0-11.31,35.94-21.58,77.41-9.63,38.58-23.75,79.09-24.95,80.3M-382.78,492.2c.16.08-.72,3.21-1.84,6.9-1.2,3.69-4.17,12.99-6.66,20.7-9.23,29.2-23.42,70.19-27.92,81.02-.64,1.52-2.97,7.7-5.13,13.64-5.86,15.96-17.49,44.68-19.73,48.45-4.41,7.54-10.83,24.87-16.85,45.4-1.6,5.53-4.81,16.12-7.22,23.66-2.41,7.46-4.73,15.24-5.13,17.25-1.13,4.73-1.13,17.73-.08,23.75,1.2,6.58,5.37,19.33,7.78,23.34,5.46,9.39,19.9,17.09,31.93,17.09,9.87,0,15.56-3.53,23.1-14.36,7.78-10.99,11.87-13.64,27.84-17.65,10.19-2.65,75.32-21.1,105.08-29.92,21.26-6.18,29.68-10.59,29.68-15.4,0-2.89-2.17-2.89-14.04.16-10.03,2.48-36.42,6.9-37.22,6.18-.48-.56-.8-.4,12.75-7.46,6.82-3.61,13.15-7.06,14.04-7.7,1.45-1.04,1.52-1.2.24-1.69-.8-.32-13.8,1.12-28.88,3.21-44.44,6.02-63.13,9.23-68.43,11.55-4.01,1.85-13.23,8.99-12.92,10.11.08.4,1.37.88,2.73,1.04,1.44.16,2.57.56,2.57.96,0,.64-7.86,2.81-8.42,2.25-.16-.16.32-2.89,1.12-6.1.8-3.21,1.2-5.94.97-6.1-.97-.56-12.03,2.08-20.14,4.89-8.26,2.81-23.82,10.11-28.32,13.24-1.28.88-2.48,1.44-2.73,1.2-.96-1.04,7.06-31.28,13.55-50.61,6.9-20.86,11.95-33.29,24.06-59.84,25.03-54.79,45.32-107.89,57.6-150.81,1.52-5.05,3.37-9.95,4.17-10.91M-319.89,740.23c-1.85,3.53-5.78,5.77-10.11,5.77h-3.05l2.25-2.81c2.33-2.97,11.63-8.18,12.11-6.74.16.4-.4,2.08-1.2,3.77M-307.14,742.95c-4.41.8-7.38.72-7.38-.16,0-.48.96-2.32,2.09-4.17l2.17-3.37,3.05,3.53,3.13,3.61-3.05.56h-.01ZM-344.92,743.27c6.98,1.92,7.06,2.08,1.52,3.53-2.89.72-5.46,1.12-5.7.88-.8-.8-1.52-5.7-.88-5.7.4,0,2.65.56,5.05,1.29"/>
      <path d="M-335.21,489.63c1.28-1.36,2.81-1.76,8.98-2.24,9.87-.64,21.34-2.81,40.99-7.54,16.2-4.01,25.67-7.38,25.11-9.07-.16-.48-1.85-2.08-3.69-3.45-3.13-2.25-4.33-2.57-13.64-3.45-5.62-.56-19.33-1.29-30.4-1.53-11.15-.32-20.3-.72-20.3-.88M-328.15,461.47c2.68,0-45.48,3.77-46.53,3.85-3.13.08-38.59-1.6-51.18-2.41-6.34-.48-25.27-.64-42.11-.4-26.31.32-30.88.56-32.65,1.68-2.33,1.6-6.42,1.53-9.55-.16-2.01-.96-6.18-1.2-23.75-1.2h-21.26l-.8,2.01c-.88,2.32-1.92,2.49-5.13.8-2.09-1.12-8.83-1.2-52.14-1.04-42.6.16-52.3-.08-66.74-1.28-18.37-1.6-18.93-1.53-24.23,2.57-3.69,2.81-.4,8.42,8.35,14.36,6.58,4.57,25.59,10.11,42.83,12.59,33.69,4.9,64.49,6.42,116.16,5.86,23.02-.24,41.87-.32,41.87-.24,0,.16-2.89,4.9-6.42,10.59-6.34,10.1-8.18,14.2-14.6,32-6.18,17.09-6.98,19.33-9.47,25.67-1.36,3.53-3.53,9.14-4.73,12.43-1.28,3.29-5.94,15.72-10.43,27.59-4.41,11.87-9.23,25.75-10.59,30.88-6.02,22.54-7.54,27.44-11.15,34.98-2.97,6.26-4.09,9.87-5.21,16.36-.8,5.06-3.85,16.13-7.7,28-3.77,11.47-6.18,20.21-5.94,21.1.32.88,1.61,2.08,2.89,2.73,3.53,1.85,2.97,3.05-1.2,2.49-3.93-.64-3.61-1.2-4.98,8.5-.48,3.69-.4,3.85,1.44,3.85,1.04,0,2.65.48,3.53,1.12,1.44,1.13,1.28,1.28-2.33,2.81l-3.77,1.6,2.41,3.93c3.69,6.02,3.29,7.14-1.29,3.69-3.37-2.64-4.25-2.01-2.48,1.69,1.68,3.53,1.68,4.49.16,3.93-3.77-1.44-4.57,4.25-1.92,12.83l1.76,5.46,1.76-2.25,1.85-2.32.48,2.81c.24,1.52.56,4.81.8,7.3.32,4.65,2.33,9.55,3.77,9.55.4,0,3.93-6.58,7.86-14.6,7.86-16.12,10.91-23.19,22.14-50.38,6.26-15.08,18.85-47.09,18.85-47.81,0-.24.56-1.6,1.2-2.97.64-1.45,1.85-4.57,2.73-6.98s3.05-8.42,4.9-13.24c1.76-4.89,8.26-22.94,14.36-40.11,27.27-76.69,30.16-87.12,34.25-123.13.72-6.42,1.44-11.79,1.6-11.95.4-.4,134.84-7.38,135.24-6.98"/>
      <path d="M-886.14,520.83c.24-.24,3.45,2.41,7.14,5.93,11.23,10.83,25.91,19.49,42.11,25.03,13.31,4.58,40.19,9.63,100.35,18.93,18.69,2.89,36.74,5.77,40.11,6.5,22.78,4.65,44.2,12.75,57.92,21.98,11.39,7.7,22.3,20.46,25.67,30.08,2.41,6.9,2.33,19.89-.16,23.75-.72,1.04-1.6,3.21-1.92,4.73-.96,4.33-6.02,15.96-9.47,21.66-8.18,13.64-14.84,21.26-35.86,40.99-31.04,29.28-34.81,32.32-54.15,45.16-29.04,19.33-49.09,31.29-79.17,47.33-8.35,4.41-10.11,6.18-7.38,7.22.72.24,1.12.88.96,1.37-.4,1.28-13.48,6.34-13.48,5.21,0-.48,2.25-2.49,4.9-4.41,2.64-1.93,4.73-3.61,4.57-3.77-.16-.08-3.37.8-7.06,2.01-3.77,1.2-17.57,5.62-30.64,9.71-23.5,7.38-23.91,7.62-23.91,9.71,0,1.2-.48,2.48-.96,2.89-1.6,1.2-8.18,2.81-10.27,2.49-2.97-.4-2.97-2.25-.08-2.25,1.37,0,2.49-.4,2.49-.8,0-1.28-3.53-.96-13.08,1.29-22.06,5.21-35.45.72-42.59-14.44-7.7-16.28-5.61-36.74,6.1-59.04,9.55-18.13,20.14-31.53,43.96-55.43,31.04-31.2,57.92-53.18,96.34-79.09,38.74-26.07,60-37.3,78.13-41.31,7.14-1.53,6.58-3.21-1.61-4.33-17.89-2.48-56.47,8.59-88.64,25.59-24.31,12.83-35.86,20.21-64.82,41.63-26.71,19.73-35.54,27.36-41.39,35.7-6.58,9.47-15.72,23.75-15.4,24.07.16.24,1.44-.24,2.81-.88,4.74-2.49,3.45.4-3.13,6.98l-6.58,6.58.48-6.82c.32-3.77.72-7.7.97-8.83.32-1.6-.56-.96-4.49,3.21-12.27,13.08-26.79,32.73-32.49,44.12-5.94,11.87-13.72,37.62-12.83,42.52.24,1.52.8,6.58,1.12,11.23,1.37,16.13,4.25,25.91,10.59,35.14,8.74,12.83,28.48,24.54,47,27.83,9.63,1.76,34.17,1.76,48.29.08,64.26-7.7,140.22-43.8,203.67-96.66,36.9-30.72,68.9-70.27,81.66-100.99,9.95-24.07,9.95-50.94-.08-74.12-4.01-9.23-7.86-14.68-17.16-23.91-10.51-10.43-20.54-17.57-34.57-24.79-26.31-13.48-48.93-19.17-104.68-26.55-59.04-7.78-85.91-15.32-114.47-32.25-14.76-8.75-15-17.25-.88-32.01,21.42-22.38,67.86-49.25,119.92-69.22,25.27-9.71,41.95-13.32,64.01-13.88,27.11-.72,41.39,3.85,50.3,16.04,1.69,2.32,6.34,8.26,10.43,13.24,10.51,12.83,11.07,9.63,1.6-8.98-7.54-14.76-16.52-24.79-27.75-30.88-4.49-2.49-4.17-3.29.64-1.6,4.25,1.52,3.69.24-1.68-3.53-13.8-9.79-29.68-14.36-53.18-15.24-5.3-.24-12.83-.16-16.85.24-8.1.72-18.53,2.57-28.08,4.89-11.23,2.81-33.69,9.46-37.54,11.07-2,.88-6.74,2.17-10.59,2.89-14.68,2.73-19.97,5.37-47.57,23.42-27.59,18.13-35.94,24.39-52.14,39.47-10.67,9.87-15.16,16.28-18.29,25.75-2.01,6.18-2.24,7.86-2.17,17.65,0,9.55.32,11.63,2.25,17.65,2.57,7.94,4.97,12.99,9.39,19.49M-809.45,629.93c0,1.85-4.97,6.26-11.31,9.87-3.29,1.92-6.74,4.25-7.54,5.13-1.69,1.85-2.81,2.09-2.73.56,0-.96,19.73-16.52,21.02-16.6.32,0,.56.48.56,1.04M-848.84,659.68c-.4.16-14.2,11.47-16.2,13.24-1.28,1.04-1.6,1.04-3.13-.48l-1.69-1.76,3.85-2.25c2.09-1.2,6.74-4.09,10.35-6.26,3.53-2.25,6.66-3.77,6.82-3.37.08.32.08.72,0,.88M-893.2,697.15c.32.48-2.89,4.25-7.38,8.82-7.14,7.22-9.79,9.3-8.98,7.22.48-1.37,14.36-16.93,15.08-16.93.4,0,.96.4,1.29.88"/>
      <g>
        <path d="M-887.35,521.07c-.64.72-.8,3.21-.56,7.62.48,7.62-.48,9.46-5.78,11.07-3.93,1.2-9.95,6.42-12.03,10.51-3.37,6.66-2.57,14.44,2.17,20.54,3.13,4.09,5.05,9.14,5.05,13.47,0,1.93.24,4.65.48,6.02.96,4.81,1.92,2.41,1.92-4.73,0-4.81.32-7.22.88-7.22,2.64,0,7.46,2.17,8.9,3.93,1.36,1.85,1.53,2.81,1.04,7.54-.56,6.26.16,12.83,1.44,12.35,1.6-.48,2.01-5.21,1.2-12.27-1.04-8.5-.4-10.26,4.17-11.63,2.01-.64,3.53-.72,4.01-.24.4.4,1.04,3.93,1.28,7.78.8,10.1,2.33,8.82,2.33-1.93,0-8.26,0-8.42,3.53-15.4,3.29-6.58,3.45-7.3,3.05-11.79-.8-8.98-5.86-14.92-15.64-18.05l-5.37-1.76-.64-7.78c-.4-4.33-.48-8.02-.24-8.26M-875.71,544.41c4.25,3.05,6.9,8.18,6.9,13.56s-.8,7.38-4.09,11.07c-7.14,8.19-19.17,8.19-26.23.08-1.44-1.6-3.05-3.85-3.45-4.97-1.12-3.13-.8-8.42.8-11.87,4.49-9.63,17.81-13.64,26.07-7.86"/>
        <path d="M-887.35,552.44c-.24,1.6.32,5.54.97,7.22.48,1.36,1.28,1.85,3.05,1.85,3.53,0,3.69-1.2.88-5.62-2.25-3.53-4.65-5.21-4.9-3.45"/>
        <path d="M-873.87,599.6c-.32,2.09-.56,4.81-.56,5.93l.08,2.09,1.92-2.41c2.33-2.89,2.49-4.9.48-7.54l-1.44-1.85-.48,3.77h0Z"/>
        <path d="M-898.81,597.68c-.16.64-.88,4.01-1.6,7.54-2.17,10.51-5.94,14.52-14.52,15.56-5.13.64-4.9,1.93.48,2.73,7.94,1.12,12.75-1.61,12.75-7.46,0-1.52.96-4.25,2.01-6.02,1.92-3.05,1.92-3.13,2.65-1.2,1.04,2.81,2.01.72,2.08-4.49,0-3.45-.32-4.73-1.68-6.09-1.36-1.36-1.85-1.53-2.17-.56"/>
        <path d="M-884.3,606.18c-.8,1.36-3.61,13.88-4.09,18.69-.4,3.69-.24,4.73,1.12,6.34l1.69,1.93,3.61-2.57,3.53-2.65,7.22,1.12c4.01.64,7.38.96,7.62.8.24-.24.4-2.01.4-3.93s.24-3.45.48-3.45c.32,0,2.32,1.04,4.41,2.41,4.41,2.73,4.97,2.01,1.68-2.33-1.28-1.6-4.25-5.78-6.66-9.23-3.93-5.78-4.33-6.18-4.57-4.25-.32,2.41-1.12,2.73-2.57.96-2.16-2.57-2.97-1.29-3.69,6.18-.72,7.54-2.01,9.71-3.45,6.1-.48-1.04-2.01-5.21-3.53-9.38-1.52-4.18-2.97-7.14-3.21-6.74"/>
      </g>
      <path d="M-645.41,804.48c-6.58.24-12.51.8-13.15,1.2-1.2.72-1.13,3.53.72,24.55,3.13,37.54,5.05,56.55,5.7,58.32.88,2.49,4.17,4.41,8.26,4.81,3.05.4,3.69.16,4.81-1.52,1.2-1.85,1.2-3.21.08-16.37-.64-7.86-1.2-15.32-1.2-16.52v-2.25h12.67c15.56,0,18.05-.8,18.45-6.1.48-6.82-2.97-8.1-21.18-8.26-7.14-.08-9.14-.32-10.03-1.37-.88-1.04-2.97-13.47-3.13-18.05,0-1.12,2.41-1.36,21.1-1.76,11.55-.24,21.58-.64,22.3-.96,2.24-.88,3.45-4.33,3.45-10.27l.08-5.77-18.45-.08c-10.11,0-23.82.16-30.48.4"/>
      <path d="M-583.64,839.61c-5.78.48-6.18,1.13-5.7,7.78.24,3.13.64,14.44.97,25.19.48,17.49.64,19.57,1.92,20.46,1.2.8,4.01.8,15.08-.32,7.46-.72,13.96-1.52,14.52-1.84,1.37-.88,1.04-2.57-.96-4.9l-1.85-2.16-9.06.72c-4.98.4-9.15.48-9.31.24s-.48-3.21-.8-6.66l-.56-6.18h4.25c5.77-.08,10.26-1.12,12.11-3.05,1.02-1.01.7-2.24-.96-3.69-2.49-2.01-2.81-2.09-8.91-1.6l-6.34.56v-7.22c0-5.78.24-7.46,1.28-8.35.88-.72,4.41-1.28,10.26-1.52l8.91-.4.24-2.65c.48-4.57-.48-4.97-11.39-4.81-5.3.08-11.47.24-13.72.4"/>
      <path d="M-536.8,832.95c-9.23,2.49-15.96,9.31-15.96,16.21,0,5.61,3.85,8.98,19.97,17.57,8.19,4.33,10.75,6.98,10.75,10.91,0,4.41-1.53,4.89-14.68,4.65-6.42-.08-12.11-.08-12.59,0-1.12.08-1.36,4.01-.48,7.14l.48,1.92,12.91-.32c11.15-.24,13.32-.48,15.72-1.85,3.61-2.09,6.42-7.7,6.98-13.8.88-9.31-2.73-13.24-15.64-16.93-9.47-2.81-11.63-4.01-13.48-7.46-3.29-6.5,5.54-11.31,16.13-8.74,2.97.72,3.37.64,5.46-1.6,1.2-1.36,2.16-2.89,2.16-3.45,0-4.49-8.98-6.66-17.73-4.25"/>
      <path d="M-481.77,837.53c-3.53.4-11.39,1.04-17.49,1.36-7.62.48-11.31.96-11.71,1.68-.4.56-.32,2.49.16,4.17l.72,3.13h7.94c6.02,0,8.1.32,9.06,1.29.72.64,1.29,1.6,1.29,2.08,0,2.81,4.25,38.5,4.89,40.83.4,1.68,1.28,3.13,1.92,3.45,1.52.56,5.77-.96,6.26-2.32.4-.96-1.28-31.2-2.25-40.59l-.48-4.49,2.57-.56c1.36-.24,4.81-.48,7.62-.48,5.61,0,7.06-.88,7.94-4.97.48-2.09.24-2.81-1.2-4.01-2-1.61-6.18-1.76-17.25-.56"/>
      <path d="M-455.7,840.9c-2.01.96-2.01,1.12-2.73,16.2-.64,15.32-.08,33.69,1.12,35.7.88,1.44,6.34,1.12,8.1-.48,1.44-1.28,1.52-2.97,1.52-25.51,0-13.32-.32-24.55-.64-25.03-.96-1.52-5.21-2.01-7.38-.88"/>
      <path d="M-440.22,841.46c-1.44.88-2.65,2.25-2.65,2.97,0,.8,2.33,5.94,5.13,11.47,2.81,5.53,6.98,15.08,9.23,21.26,6.42,17.41,5.78,16.44,10.27,16.44,2.17,0,4.34-.32,4.81-.64.56-.32,1.36-2.41,1.76-4.65.4-2.17,2.57-10.59,4.74-18.77,2.25-8.18,4.57-17,5.21-19.65.72-2.65,1.44-5.37,1.76-6.1.88-2.24-1.76-3.93-6.1-3.93-2.49,0-4.09.4-4.25.96s-.88,4.81-1.61,9.47c-.72,4.65-2,11.47-2.89,15.24-.88,3.77-1.85,7.7-2.09,8.74-.32,1.69-.56,1.77-1.52.8-.88-.96-6.74-14.76-12.27-29.2-2.41-6.26-4.81-7.38-9.54-4.41"/>
      <path d="M-377.24,839.61c-1.04,1.29-18.29,50.62-18.29,52.38,0,.72,4.33,2.41,6.1,2.41s3.37-3.21,5.29-10.11l1.85-6.34,8.42-.64c4.65-.32,9.14-.4,10.11-.16,1.68.4,3.13,2.73,5.69,9.63,1.93,4.97,5.46,7.38,9.23,6.34,4.97-1.44,4.81-2.48-1.92-15.8-7.22-14.12-17.57-32.65-20.45-36.5-2.17-2.89-4.17-3.29-6.02-1.2"/>
      <path d="M-339.22,838.09c-.72.48-.8,1.68-.16,4.97.4,2.32.8,14.04.8,26.07,0,16.53.24,22.06,1.04,22.7.48.4,7.3,1.04,15,1.36,16.44.64,16.36.72,16.44-6.74v-4.49l-10.59.32c-10.59.24-10.67.24-11.31-1.6-1.12-2.89-2.01-17.41-1.85-29.36.16-9.71,0-10.75-1.44-12.19-1.69-1.69-5.94-2.25-7.94-1.04"/>
    </g>
  </g>
  <g>
    <g>
      <path class="st9" d="M402.14,244.46c-16.72-1.7-30.68,9.64-30.65,23.97.03,14.19,12.11,24.59,28.72,24.35,16.73-.24,31.36-9.1,31.47-21.5.11-12.52-12.71-25.1-29.55-26.82h.01Z"/>
      <g>
        <path class="st9" d="M517.79,308.64c5.68-.38,8.52-.55,14.21-.82-1.64-9.17-2.61-14-4.15-23.63-4.04,9.84-5.9,14.84-10.06,24.45h0Z"/>
        <path class="st9" d="M731.64,294.87c-1.05-5.48-6.4-34.33-6.4-34.33,0,0-16.62-19.92-55.26-23.32-25.96-2.29-208.12-7.22-208.12-7.22,0,0-3.86-10.72-44.07-32.33-84.68-45.52-208,5.84-204.98,13.32l27.08,195.53s75.88-66.78,159.39-63.67c27.71,1.03,5.88,20.68,5.88,20.68,0,0,11.73-3.6,73.16-.05s152.78-2.6,206.3,6.01c53.52,8.6-2.39,32.99-2.39,32.99,0,0,82.44-7.08,110.83-16.89,49.45-17.09,88.57-43.16,99.81-86.95-53.38,18.76-123.39,12.23-161.24-3.76h.01ZM338.27,325.09c-24.33,5.24-48.45,10.96-72.63,16.87-.44-12.32-.08-18.22.45-29.66,9.91-2.07,14.92-3.11,25-5.05,1.2-21.14.91-30.66.35-51.14-4.2,3.71-6.28,5.61-10.42,9.47-4.31-8.77-6.48-13.26-10.87-22.31,10.82-10.16,16.37-15.02,27.56-23.93,5.23-.19,7.85-.25,13.09-.32.82,28.24,1.88,56.42-.08,84.64,11.44-1.97,17.2-2.88,28.72-4.41-.76,9.88-1.24,14.95-1.17,25.83h0ZM399.58,315.29c-27.15,2.2-47.45-19.59-47.4-46.05.05-27.65,23.42-50.15,51.01-45.79,24.57,3.89,48.76,25.87,48.4,50.57-.35,24.42-29.1,39.41-52.01,41.27ZM537.03,338.18c-1.06-6.06-1.5-8.84-2.37-14.28-9.86.55-14.79.91-24.61,1.76-2.6,5.81-3.93,8.79-6.42,15.3-4.76.5-7.14.76-11.89,1.33,10.16-25.56,22.15-50.33,32.24-75.91,0-.04,0-.06.01-.11,4.83-.15,7.25-.2,12.08-.28,0,.04,0,.06-.01.11,4.4,23.79,8.54,47.62,12.89,71.41-4.78.23-7.16.36-11.93.66h.01ZM601.69,336.62c-2.78-.05-4.17-.07-6.95-.09-8.19-14.42-17.16-28.37-25.35-42.78-1.36,14.36-2.98,28.69-4.25,43.06-4.34.21-6.52.32-10.85.59,2.27-23.84,5.57-47.58,7.49-71.44,2.84.05,4.26.09,7.1.17,7.91,14.22,15.6,28.6,24.22,42.41,1.04-13.72,2.21-27.43,2.9-41.17,4.05.26,6.07.4,10.12.71-.93,22.88-3.14,45.7-4.42,68.56v-.02ZM635.14,336.36c-17.58,1.21-26.69-19.64-26.04-33.75.64-13.89,11.76-34.39,28.7-32.04,15.33,2.14,25.65,19.53,25.59,34.29-.06,15.41-12.67,30.42-28.24,31.49h0ZM694.1,338.43c-16.4-1.94-25.59-10.54-25.97-10.91,2.46-4.75,3.69-6.91,6.11-11.23,0,0,6.89,6.1,19.83,7.77,6.82.88,11.39-.36,11.35-2.75-.04-2.31-9.02-5.69-12.72-6.94-9.92-2.8-20.59-8.37-19.94-20.39.6-11.25,11.23-17.82,21.81-15.53,11.91,2.57,18.09,8.71,18.78,9.47-2.08,4.1-3.22,6.17-5.45,10.35.02.04.04.06.06.1-.06-.1-4.37-4.39-13.61-6.06-6.53-1.18-11.23.7-11.32,2.96-.09,2.34,7.77,4.5,11.35,5.87,10.4,3.94,21.1,10.72,21.57,22.52.44,11.06-12.26,15.92-21.84,14.79v-.02Z"/>
        <path class="st9" d="M637.17,285.98c-9-.57-17.27,7.31-17.59,17.02-.32,9.62,6.97,17.54,16.17,17.59,9.2.05,17.2-7.2,17.33-16.34.13-9.23-6.91-17.7-15.91-18.27Z"/>
      </g>
      <path class="st3" d="M475.93,336.85c8.57-13.37-5.4-77.9-5.4-77.9l-9.22-29.2s22.96,88.67,9.31,100.36c-13.65,11.69-53.97,3.63-71.52,3.96.62,1.23,11.23,9.39,4.29,29.26,34.21-3.17,63.98-13.12,72.55-26.49h-.01Z"/>
      <path class="st3" d="M732.27,301.94l-7.8-41.72s20.07,106.3,7.62,111.2c-12.45,4.89-35.55-.35-57.5-3.44,7.1,17.72,7.08,34.34,7.08,34.34,0,0,39.68-4.21,55.66-24.94,9.01-11.7-5.05-75.44-5.05-75.44h0Z"/>
    </g>
    <path class="st2" d="M247.83,409.55c3.07-1.48-24.09-208.08-24.09-208.08l-14.01.7,27.43,208.74,10.68-1.36h-.01Z"/>
    <polygon class="st2" points="197.29 172.63 190.73 189.32 199.24 205.03 215.36 212.31 225.33 205.44 236.74 192.79 227.3 169.74 209.51 166.4 197.29 172.63"/>
    <g>
      <path class="st2" d="M774.01,469.28c0-.24,7.78-31.29,8.58-34.65,5.14-20.29,11.15-51.9,13.08-68.74,1.29-11.63,1.2-41.47-.08-49.74-1.45-8.74-5.06-17.97-8.82-22.22l-3.13-3.45-.32,13.23c-.4,12.99-2.25,24.87-3.93,24.87-.4,0-.72-1.52-.72-3.37,0-2.57-.64-4.41-2.57-7.22-1.44-2.17-2.89-3.85-3.13-3.85-1.28,0-11.31,35.94-21.58,77.41-9.63,38.58-23.75,79.09-24.95,80.3M726.44,471.85c.16.08-.72,3.21-1.84,6.9-1.2,3.69-4.17,12.99-6.66,20.7-9.23,29.2-23.42,70.19-27.92,81.02-.64,1.52-2.97,7.7-5.13,13.64-5.86,15.96-17.49,44.68-19.73,48.45-4.41,7.54-10.83,24.87-16.85,45.4-1.6,5.53-4.81,16.12-7.22,23.66-2.41,7.46-4.73,15.24-5.13,17.25-1.13,4.73-1.13,17.73-.08,23.75,1.2,6.58,5.37,19.33,7.78,23.34,5.46,9.39,19.9,17.09,31.93,17.09,9.87,0,15.56-3.53,23.1-14.36,7.78-10.99,11.87-13.64,27.84-17.65,10.19-2.65,75.32-21.1,105.08-29.92,21.26-6.18,29.68-10.59,29.68-15.4,0-2.89-2.17-2.89-14.04.16-10.03,2.48-36.42,6.9-37.22,6.18-.48-.56-.8-.4,12.75-7.46,6.82-3.61,13.15-7.06,14.04-7.7,1.45-1.04,1.52-1.2.24-1.69-.8-.32-13.8,1.12-28.88,3.21-44.44,6.02-63.13,9.23-68.43,11.55-4.01,1.85-13.23,8.99-12.92,10.11.08.4,1.37.88,2.73,1.04,1.44.16,2.57.56,2.57.96,0,.64-7.86,2.81-8.42,2.25-.16-.16.32-2.89,1.12-6.1.8-3.21,1.2-5.94.97-6.1-.97-.56-12.03,2.08-20.14,4.89-8.26,2.81-23.82,10.11-28.32,13.24-1.28.88-2.48,1.44-2.73,1.2-.96-1.04,7.06-31.28,13.55-50.61,6.9-20.86,11.95-33.29,24.06-59.84,25.03-54.79,45.32-107.89,57.6-150.81,1.52-5.05,3.37-9.95,4.17-10.91M789.34,719.88c-1.85,3.53-5.78,5.77-10.11,5.77h-3.05l2.25-2.81c2.33-2.97,11.63-8.18,12.11-6.74.16.4-.4,2.08-1.2,3.77M802.09,722.61c-4.41.8-7.38.72-7.38-.16,0-.48.96-2.32,2.09-4.17l2.17-3.37,3.05,3.53,3.13,3.61-3.05.56h-.01ZM764.31,722.93c6.98,1.92,7.06,2.08,1.52,3.53-2.89.72-5.46,1.12-5.7.88-.8-.8-1.52-5.7-.88-5.7.4,0,2.65.56,5.05,1.29"/>
      <path class="st2" d="M774.01,469.28c1.28-1.36,2.81-1.76,8.98-2.24,9.87-.64,21.34-2.81,40.99-7.54,16.2-4.01,25.67-7.38,25.11-9.07-.16-.48-1.85-2.08-3.69-3.45-3.13-2.25-4.33-2.57-13.64-3.45-5.62-.56-19.33-1.29-30.4-1.53-11.15-.32-20.3-.72-20.3-.88M781.07,441.13c2.68,0-45.48,3.77-46.53,3.85-3.13.08-38.59-1.6-51.18-2.41-6.34-.48-25.27-.64-42.11-.4-26.31.32-30.88.56-32.65,1.68-2.33,1.6-6.42,1.53-9.55-.16-2.01-.96-6.18-1.2-23.75-1.2h-21.26l-.8,2.01c-.88,2.32-1.92,2.49-5.13.8-2.09-1.12-8.83-1.2-52.14-1.04-42.6.16-52.3-.08-66.74-1.28-18.37-1.6-18.93-1.53-24.23,2.57-3.69,2.81-.4,8.42,8.35,14.36,6.58,4.57,25.59,10.11,42.83,12.59,33.69,4.9,64.49,6.42,116.16,5.86,23.02-.24,41.87-.32,41.87-.24,0,.16-2.89,4.9-6.42,10.59-6.34,10.1-8.18,14.2-14.6,32-6.18,17.09-6.98,19.33-9.47,25.67-1.36,3.53-3.53,9.14-4.73,12.43-1.28,3.29-5.94,15.72-10.43,27.59-4.41,11.87-9.23,25.75-10.59,30.88-6.02,22.54-7.54,27.44-11.15,34.98-2.97,6.26-4.09,9.87-5.21,16.36-.8,5.06-3.85,16.13-7.7,28-3.77,11.47-6.18,20.21-5.94,21.1.32.88,1.61,2.08,2.89,2.73,3.53,1.85,2.97,3.05-1.2,2.49-3.93-.64-3.61-1.2-4.98,8.5-.48,3.69-.4,3.85,1.44,3.85,1.04,0,2.65.48,3.53,1.12,1.44,1.13,1.28,1.28-2.33,2.81l-3.77,1.6,2.41,3.93c3.69,6.02,3.29,7.14-1.29,3.69-3.37-2.64-4.25-2.01-2.48,1.69,1.68,3.53,1.68,4.49.16,3.93-3.77-1.44-4.57,4.25-1.92,12.83l1.76,5.46,1.76-2.25,1.85-2.32.48,2.81c.24,1.52.56,4.81.8,7.3.32,4.65,2.33,9.55,3.77,9.55.4,0,3.93-6.58,7.86-14.6,7.86-16.12,10.91-23.19,22.14-50.38,6.26-15.08,18.85-47.09,18.85-47.81,0-.24.56-1.6,1.2-2.97.64-1.45,1.85-4.57,2.73-6.98s3.05-8.42,4.9-13.24c1.76-4.89,8.26-22.94,14.36-40.11,27.27-76.69,30.16-87.12,34.25-123.13.72-6.42,1.44-11.79,1.6-11.95.4-.4,134.84-7.38,135.24-6.98"/>
      <path class="st2" d="M223.08,500.49c.24-.24,3.45,2.41,7.14,5.93,11.23,10.83,25.91,19.49,42.11,25.03,13.31,4.58,40.19,9.63,100.35,18.93,18.69,2.89,36.74,5.77,40.11,6.5,22.78,4.65,44.2,12.75,57.92,21.98,11.39,7.7,22.3,20.46,25.67,30.08,2.41,6.9,2.33,19.89-.16,23.75-.72,1.04-1.6,3.21-1.92,4.73-.96,4.33-6.02,15.96-9.47,21.66-8.18,13.64-14.84,21.26-35.86,40.99-31.04,29.28-34.81,32.32-54.15,45.16-29.04,19.33-49.09,31.29-79.17,47.33-8.35,4.41-10.11,6.18-7.38,7.22.72.24,1.12.88.96,1.37-.4,1.28-13.48,6.34-13.48,5.21,0-.48,2.25-2.49,4.9-4.41,2.64-1.93,4.73-3.61,4.57-3.77-.16-.08-3.37.8-7.06,2.01-3.77,1.2-17.57,5.62-30.64,9.71-23.5,7.38-23.91,7.62-23.91,9.71,0,1.2-.48,2.48-.96,2.89-1.6,1.2-8.18,2.81-10.27,2.49-2.97-.4-2.97-2.25-.08-2.25,1.37,0,2.49-.4,2.49-.8,0-1.28-3.53-.96-13.08,1.29-22.06,5.21-35.45.72-42.59-14.44-7.7-16.28-5.61-36.74,6.1-59.04,9.55-18.13,20.14-31.53,43.96-55.43,31.04-31.2,57.92-53.18,96.34-79.09,38.74-26.07,60-37.3,78.13-41.31,7.14-1.53,6.58-3.21-1.61-4.33-17.89-2.48-56.47,8.59-88.64,25.59-24.31,12.83-35.86,20.21-64.82,41.63-26.71,19.73-35.54,27.36-41.39,35.7-6.58,9.47-15.72,23.75-15.4,24.07.16.24,1.44-.24,2.81-.88,4.74-2.49,3.45.4-3.13,6.98l-6.58,6.58.48-6.82c.32-3.77.72-7.7.97-8.83.32-1.6-.56-.96-4.49,3.21-12.27,13.08-26.79,32.73-32.49,44.12-5.94,11.87-13.72,37.62-12.83,42.52.24,1.52.8,6.58,1.12,11.23,1.37,16.13,4.25,25.91,10.59,35.14,8.74,12.83,28.48,24.54,47,27.83,9.63,1.76,34.17,1.76,48.29.08,64.26-7.7,140.22-43.8,203.67-96.66,36.9-30.72,68.9-70.27,81.66-100.99,9.95-24.07,9.95-50.94-.08-74.12-4.01-9.23-7.86-14.68-17.16-23.91-10.51-10.43-20.54-17.57-34.57-24.79-26.31-13.48-48.93-19.17-104.68-26.55-59.04-7.78-85.91-15.32-114.47-32.25-14.76-8.75-15-17.25-.88-32.01,21.42-22.38,67.86-49.25,119.92-69.22,25.27-9.71,41.95-13.32,64.01-13.88,27.11-.72,41.39,3.85,50.3,16.04,1.69,2.32,6.34,8.26,10.43,13.24,10.51,12.83,11.07,9.63,1.6-8.98-7.54-14.76-16.52-24.79-27.75-30.88-4.49-2.49-4.17-3.29.64-1.6,4.25,1.52,3.69.24-1.68-3.53-13.8-9.79-29.68-14.36-53.18-15.24-5.3-.24-12.83-.16-16.85.24-8.1.72-18.53,2.57-28.08,4.89-11.23,2.81-33.69,9.46-37.54,11.07-2,.88-6.74,2.17-10.59,2.89-14.68,2.73-19.97,5.37-47.57,23.42-27.59,18.13-35.94,24.39-52.14,39.47-10.67,9.87-15.16,16.28-18.29,25.75-2.01,6.18-2.24,7.86-2.17,17.65,0,9.55.32,11.63,2.25,17.65,2.57,7.94,4.97,12.99,9.39,19.49M299.77,609.58c0,1.85-4.97,6.26-11.31,9.87-3.29,1.92-6.74,4.25-7.54,5.13-1.69,1.85-2.81,2.09-2.73.56,0-.96,19.73-16.52,21.02-16.6.32,0,.56.48.56,1.04M260.38,639.34c-.4.16-14.2,11.47-16.2,13.24-1.28,1.04-1.6,1.04-3.13-.48l-1.69-1.76,3.85-2.25c2.09-1.2,6.74-4.09,10.35-6.26,3.53-2.25,6.66-3.77,6.82-3.37.08.32.08.72,0,.88M216.03,676.81c.32.48-2.89,4.25-7.38,8.82-7.14,7.22-9.79,9.3-8.98,7.22.48-1.37,14.36-16.93,15.08-16.93.4,0,.96.4,1.29.88"/>
      <g>
        <path class="st2" d="M221.88,500.73c-.64.72-.8,3.21-.56,7.62.48,7.62-.48,9.46-5.78,11.07-3.93,1.2-9.95,6.42-12.03,10.51-3.37,6.66-2.57,14.44,2.17,20.54,3.13,4.09,5.05,9.14,5.05,13.47,0,1.93.24,4.65.48,6.02.96,4.81,1.92,2.41,1.92-4.73,0-4.81.32-7.22.88-7.22,2.64,0,7.46,2.17,8.9,3.93,1.36,1.85,1.53,2.81,1.04,7.54-.56,6.26.16,12.83,1.44,12.35,1.6-.48,2.01-5.21,1.2-12.27-1.04-8.5-.4-10.26,4.17-11.63,2.01-.64,3.53-.72,4.01-.24.4.4,1.04,3.93,1.28,7.78.8,10.1,2.33,8.82,2.33-1.93,0-8.26,0-8.42,3.53-15.4,3.29-6.58,3.45-7.3,3.05-11.79-.8-8.98-5.86-14.92-15.64-18.05l-5.37-1.76-.64-7.78c-.4-4.33-.48-8.02-.24-8.26M233.51,524.07c4.25,3.05,6.9,8.18,6.9,13.56s-.8,7.38-4.09,11.07c-7.14,8.19-19.17,8.19-26.23.08-1.44-1.6-3.05-3.85-3.45-4.97-1.12-3.13-.8-8.42.8-11.87,4.49-9.63,17.81-13.64,26.07-7.86"/>
        <path class="st2" d="M221.88,532.09c-.24,1.6.32,5.54.97,7.22.48,1.36,1.28,1.85,3.05,1.85,3.53,0,3.69-1.2.88-5.62-2.25-3.53-4.65-5.21-4.9-3.45"/>
        <path class="st2" d="M235.36,579.26c-.32,2.09-.56,4.81-.56,5.93l.08,2.09,1.92-2.41c2.33-2.89,2.49-4.9.48-7.54l-1.44-1.85-.48,3.77h0Z"/>
        <path class="st2" d="M210.41,577.34c-.16.64-.88,4.01-1.6,7.54-2.17,10.51-5.94,14.52-14.52,15.56-5.13.64-4.9,1.93.48,2.73,7.94,1.12,12.75-1.61,12.75-7.46,0-1.52.96-4.25,2.01-6.02,1.92-3.05,1.92-3.13,2.65-1.2,1.04,2.81,2.01.72,2.08-4.49,0-3.45-.32-4.73-1.68-6.09-1.36-1.36-1.85-1.53-2.17-.56"/>
        <path class="st2" d="M224.93,585.84c-.8,1.36-3.61,13.88-4.09,18.69-.4,3.69-.24,4.73,1.12,6.34l1.69,1.93,3.61-2.57,3.53-2.65,7.22,1.12c4.01.64,7.38.96,7.62.8.24-.24.4-2.01.4-3.93s.24-3.45.48-3.45c.32,0,2.32,1.04,4.41,2.41,4.41,2.73,4.97,2.01,1.68-2.33-1.28-1.6-4.25-5.78-6.66-9.23-3.93-5.78-4.33-6.18-4.57-4.25-.32,2.41-1.12,2.73-2.57.96-2.16-2.57-2.97-1.29-3.69,6.18-.72,7.54-2.01,9.71-3.45,6.1-.48-1.04-2.01-5.21-3.53-9.38-1.52-4.18-2.97-7.14-3.21-6.74"/>
      </g>
      <path class="st2" d="M463.82,784.13c-6.58.24-12.51.8-13.15,1.2-1.2.72-1.13,3.53.72,24.55,3.13,37.54,5.05,56.55,5.7,58.32.88,2.49,4.17,4.41,8.26,4.81,3.05.4,3.69.16,4.81-1.52,1.2-1.85,1.2-3.21.08-16.37-.64-7.86-1.2-15.32-1.2-16.52v-2.25h12.67c15.56,0,18.05-.8,18.45-6.1.48-6.82-2.97-8.1-21.18-8.26-7.14-.08-9.14-.32-10.03-1.37-.88-1.04-2.97-13.47-3.13-18.05,0-1.12,2.41-1.36,21.1-1.76,11.55-.24,21.58-.64,22.3-.96,2.24-.88,3.45-4.33,3.45-10.27l.08-5.77-18.45-.08c-10.11,0-23.82.16-30.48.4"/>
      <path class="st2" d="M525.58,819.27c-5.78.48-6.18,1.13-5.7,7.78.24,3.13.64,14.44.97,25.19.48,17.49.64,19.57,1.92,20.46,1.2.8,4.01.8,15.08-.32,7.46-.72,13.96-1.52,14.52-1.84,1.37-.88,1.04-2.57-.96-4.9l-1.85-2.16-9.06.72c-4.98.4-9.15.48-9.31.24s-.48-3.21-.8-6.66l-.56-6.18h4.25c5.77-.08,10.26-1.12,12.11-3.05,1.02-1.01.7-2.24-.96-3.69-2.49-2.01-2.81-2.09-8.91-1.6l-6.34.56v-7.22c0-5.78.24-7.46,1.28-8.35.88-.72,4.41-1.28,10.26-1.52l8.91-.4.24-2.65c.48-4.57-.48-4.97-11.39-4.81-5.3.08-11.47.24-13.72.4"/>
      <path class="st2" d="M572.43,812.61c-9.23,2.49-15.96,9.31-15.96,16.21,0,5.61,3.85,8.98,19.97,17.57,8.19,4.33,10.75,6.98,10.75,10.91,0,4.41-1.53,4.89-14.68,4.65-6.42-.08-12.11-.08-12.59,0-1.12.08-1.36,4.01-.48,7.14l.48,1.92,12.91-.32c11.15-.24,13.32-.48,15.72-1.85,3.61-2.09,6.42-7.7,6.98-13.8.88-9.31-2.73-13.24-15.64-16.93-9.47-2.81-11.63-4.01-13.48-7.46-3.29-6.5,5.54-11.31,16.13-8.74,2.97.72,3.37.64,5.46-1.6,1.2-1.36,2.16-2.89,2.16-3.45,0-4.49-8.98-6.66-17.73-4.25"/>
      <path class="st2" d="M627.46,817.18c-3.53.4-11.39,1.04-17.49,1.36-7.62.48-11.31.96-11.71,1.68-.4.56-.32,2.49.16,4.17l.72,3.13h7.94c6.02,0,8.1.32,9.06,1.29.72.64,1.29,1.6,1.29,2.08,0,2.81,4.25,38.5,4.89,40.83.4,1.68,1.28,3.13,1.92,3.45,1.52.56,5.77-.96,6.26-2.32.4-.96-1.28-31.2-2.25-40.59l-.48-4.49,2.57-.56c1.36-.24,4.81-.48,7.62-.48,5.61,0,7.06-.88,7.94-4.97.48-2.09.24-2.81-1.2-4.01-2-1.61-6.18-1.76-17.25-.56"/>
      <path class="st2" d="M653.53,820.55c-2.01.96-2.01,1.12-2.73,16.2-.64,15.32-.08,33.69,1.12,35.7.88,1.44,6.34,1.12,8.1-.48,1.44-1.28,1.52-2.97,1.52-25.51,0-13.32-.32-24.55-.64-25.03-.96-1.52-5.21-2.01-7.38-.88"/>
      <path class="st2" d="M669.01,821.11c-1.44.88-2.65,2.25-2.65,2.97,0,.8,2.33,5.94,5.13,11.47,2.81,5.53,6.98,15.08,9.23,21.26,6.42,17.41,5.78,16.44,10.27,16.44,2.17,0,4.34-.32,4.81-.64.56-.32,1.36-2.41,1.76-4.65.4-2.17,2.57-10.59,4.74-18.77,2.25-8.18,4.57-17,5.21-19.65.72-2.65,1.44-5.37,1.76-6.1.88-2.24-1.76-3.93-6.1-3.93-2.49,0-4.09.4-4.25.96s-.88,4.81-1.61,9.47c-.72,4.65-2,11.47-2.89,15.24-.88,3.77-1.85,7.7-2.09,8.74-.32,1.69-.56,1.77-1.52.8-.88-.96-6.74-14.76-12.27-29.2-2.41-6.26-4.81-7.38-9.54-4.41"/>
      <path class="st2" d="M731.98,819.27c-1.04,1.29-18.29,50.62-18.29,52.38,0,.72,4.33,2.41,6.1,2.41s3.37-3.21,5.29-10.11l1.85-6.34,8.42-.64c4.65-.32,9.14-.4,10.11-.16,1.68.4,3.13,2.73,5.69,9.63,1.93,4.97,5.46,7.38,9.23,6.34,4.97-1.44,4.81-2.48-1.92-15.8-7.22-14.12-17.57-32.65-20.45-36.5-2.17-2.89-4.17-3.29-6.02-1.2"/>
      <path class="st2" d="M770,817.75c-.72.48-.8,1.68-.16,4.97.4,2.32.8,14.04.8,26.07,0,16.53.24,22.06,1.04,22.7.48.4,7.3,1.04,15,1.36,16.44.64,16.36.72,16.44-6.74v-4.49l-10.59.32c-10.59.24-10.67.24-11.31-1.6-1.12-2.89-2.01-17.41-1.85-29.36.16-9.71,0-10.75-1.44-12.19-1.69-1.69-5.94-2.25-7.94-1.04"/>
    </g>
  </g>
  <g>
    <g>
      <path class="st7" d="M-2040,211.79c-3.13-7.73,124.26-60.78,211.73-13.76,41.53,22.32,45.52,33.39,45.52,33.39,0,0,188.16,5.1,214.98,7.46,39.91,3.52,57.08,24.09,57.08,24.09,0,0,5.53,29.81,6.62,35.47,39.1,16.51,111.41,23.26,166.55,3.88-11.61,45.24-52.02,72.17-103.1,89.82-29.33,10.13-114.48,17.45-114.48,17.45,0,0,57.75-25.19,2.47-34.07s-149.64-2.53-213.1-6.2c-63.46-3.67-75.57.05-75.57.05,0,0,22.55-20.3-6.07-21.37-86.27-3.21-164.65,65.77-164.65,65.77l-27.97-201.97h-.01Z"/>
      <path class="st1" d="M-1767.41,342.05c8.85-13.81-5.58-80.46-5.58-80.46l-9.53-30.16s23.72,91.59,9.62,103.67-55.75,3.75-73.88,4.09c.64,1.27,11.6,9.7,4.43,30.23,35.34-3.28,66.08-13.55,74.94-27.36h0Z"/>
      <path class="st1" d="M-1502.62,305.98l-8.06-43.09s20.73,109.81,7.87,114.86c-12.86,5.06-36.72-.36-59.39-3.55,7.33,18.3,7.31,35.47,7.31,35.47,0,0,40.99-4.35,57.49-25.77,9.31-12.08-5.22-77.92-5.22-77.92h0Z"/>
      <g>
        <path class="st8" d="M-1906.41,327.31c-25.22,4.76-50.21,10.76-75.18,16.7-.43-12.66-.04-18.73.53-30.48,10.26-2.04,15.44-3.06,25.88-4.97,1.28-21.72,1-31.5.45-52.56-4.35,3.78-6.51,5.71-10.79,9.64-4.44-9.05-6.68-13.69-11.2-23.03,11.21-10.35,16.96-15.28,28.54-24.33,5.41-.14,8.12-.18,13.53-.2.8,29.02,1.85,57.97-.22,86.97,11.84-1.92,17.79-2.8,29.71-4.26-.8,10.15-1.3,15.35-1.24,26.53h-.01Z"/>
        <path class="st8" d="M-1793.36,276.9c-.32,24.83-30.37,40.8-53.72,42.63-27.72,2.17-48.94-20.78-48.96-47.57-.03-27.83,24.82-51.64,52.69-47.3,24.86,3.87,50.32,27.08,50,52.23h-.01ZM-1813.11,274.31c.12-12.93-13.13-25.93-30.52-27.7-17.27-1.76-31.69,9.96-31.66,24.76.03,14.66,12.51,25.41,29.67,25.16,17.28-.25,32.39-9.4,32.51-22.21h0Z"/>
        <path class="st4" d="M-1910.41,329.65c-25.18,5.01-50.11,11.25-75.02,17.43-.46-12.72-.08-18.82.46-30.63,10.24-2.14,15.41-3.21,25.82-5.22,1.24-21.84.94-31.67.36-52.83-4.34,3.84-6.49,5.8-10.76,9.78-4.45-9.06-6.7-13.7-11.23-23.05,11.18-10.5,16.91-15.51,28.47-24.71,5.4-.19,8.11-.26,13.52-.33.85,29.17,1.94,58.28-.08,87.43,11.82-2.04,17.77-2.97,29.67-4.55-.78,10.21-1.28,15.45-1.21,26.68h0Z"/>
        <path class="st4" d="M-1797.43,277.86c-.33,24.94-30.19,41.34-53.7,43.43-27.78,2.47-48.93-20.59-48.98-47.37-.05-27.9,24.61-52.16,52.64-48.08,24.92,3.63,50.38,26.83,50.05,52.03h-.01ZM-1817.2,275.46c.11-13.01-13.15-25.95-30.55-27.56-17.28-1.6-31.68,10.33-31.63,25.21.04,14.74,12.53,25.43,29.68,25.01,17.27-.42,32.39-9.78,32.5-22.67h0Z"/>
      </g>
      <g>
        <path class="st8" d="M-1703.43,342.38c-1.09-6.12-1.55-8.93-2.45-14.43-10.07.53-15.09.88-25.11,1.72-2.64,5.85-3.99,8.86-6.51,15.43-4.86.49-7.29.75-12.14,1.31,10.31-25.79,22.23-50.85,32.72-76.56,0-.04,0-.07.01-.11,4.93-.14,7.4-.19,12.35-.25,0,.04,0,.06-.01.11,4.53,24.03,8.82,48.11,13.32,72.14-4.87.22-7.31.34-12.17.63h0ZM-1712.92,287.84c-4.1,9.92-5.99,14.97-10.22,24.66,5.8-.37,8.7-.53,14.51-.8-1.7-9.26-2.69-14.15-4.29-23.87h0Z"/>
        <path class="st8" d="M-1637.46,340.98c-2.84-.06-4.26-.08-7.09-.11-8.51-14.51-17.55-28.7-25.93-43.28-1.32,14.51-3.08,28.96-4.26,43.48-4.43.2-6.65.31-11.07.57,2.27-24.07,5.41-48.05,7.5-72.14,2.9.06,4.35.1,7.25.18,8.11,14.38,15.98,28.93,24.8,42.89,1.04-13.86,2.12-27.71,2.91-41.59,4.13.27,6.2.41,10.33.73-.92,23.12-3.16,46.16-4.43,69.26h0Z"/>
        <path class="st8" d="M-1574.54,309.04c.23,15.98-13.38,31.11-28.8,31.76-16.84.71-27.26-19.02-26.6-34.16.65-14.87,12.88-34.11,29.27-32.31,15.92,1.75,25.9,19.38,26.13,34.71ZM-1585.05,308.39c.13-9.32-7.06-17.9-16.25-18.5-9.19-.59-17.62,7.35-17.94,17.16-.32,9.72,7.12,17.74,16.51,17.81s17.55-7.23,17.68-16.47Z"/>
        <path class="st8" d="M-1520.92,328.12c.43,11.23-12.73,15.9-22.29,14.9-9.17-.96-19.38-4.79-26.49-11.09,2.51-4.8,3.77-6.98,6.23-11.34,0,0,7.03,6.18,20.23,7.89,6.96.9,11.62-.34,11.59-2.76-.03-2.34-9.2-5.77-12.98-7.05-10.25-3.25-20.75-8.32-20.35-20.65.37-11.5,11.57-17.97,22.28-15.66,12.15,2.63,18.47,8.84,19.17,9.61-2.12,4.14-3.29,6.23-5.58,10.45.02.04.04.06.06.1-.06-.1-4.46-4.45-13.88-6.16-6.67-1.21-11.46.69-11.55,2.97-.09,2.37,7.93,4.57,11.58,5.96,10.55,3.98,21.53,10.83,21.99,22.81v.02Z"/>
        <path class="st4" d="M-1706.16,344.35c-1.08-6.13-1.53-8.94-2.42-14.44-10.08.58-15.11.95-25.14,1.83-2.65,5.88-4.01,8.9-6.55,15.49-4.87.51-7.29.79-12.15,1.37,10.37-25.88,22.35-51.03,32.89-76.83,0-.04,0-.07.01-.11,4.94-.16,7.41-.23,12.36-.31,0,.04,0,.06-.01.11,4.49,24.05,8.74,48.15,13.19,72.21-4.88.24-7.32.38-12.19.69h.01ZM-1715.55,289.75c-4.13,9.96-6.03,15.02-10.28,24.75,5.8-.4,8.71-.57,14.52-.86-1.68-9.27-2.67-14.16-4.25-23.89h.01Z"/>
        <path class="st4" d="M-1640.12,342.65c-2.84-.04-4.26-.06-7.1-.08-8.48-14.5-17.5-28.68-25.87-43.24-1.36,14.54-3.15,29.02-4.36,43.58-4.44.22-6.65.34-11.09.62,2.32-24.13,5.51-48.15,7.67-72.29,2.9.05,4.35.08,7.26.15,8.09,14.37,15.94,28.9,24.74,42.86,1.07-13.89,2.18-27.77,3.01-41.68,4.14.25,6.21.39,10.35.69-.98,23.17-3.27,46.26-4.6,69.41v-.02Z"/>
        <path class="st4" d="M-1577.02,310.37c.18,16.02-13.46,31.22-28.93,31.95-16.87.8-27.25-18.97-26.56-34.11.69-14.92,12.96-34.22,29.4-32.5,15.94,1.67,25.91,19.33,26.08,34.66h.01ZM-1587.55,309.77c.16-9.34-7.03-17.91-16.23-18.46s-17.67,7.45-18.02,17.27c-.34,9.73,7.09,17.74,16.49,17.77s17.59-7.33,17.75-16.58h.01Z"/>
        <path class="st4" d="M-1523.35,329.25c.39,11.25-12.77,15.99-22.38,15.03-9.17-.91-19.39-4.71-26.51-10.99,2.53-4.82,3.79-7.01,6.27-11.39,0,0,7.02,6.16,20.24,7.82,6.97.87,11.65-.39,11.62-2.82-.03-2.34-9.21-5.74-12.98-7-10.27-3.21-20.77-8.25-20.33-20.6.41-11.52,11.61-18.06,22.37-15.79,12.18,2.57,18.49,8.77,19.19,9.54-2.14,4.16-3.32,6.26-5.62,10.5.02.04.04.06.06.1-.06-.1-4.46-4.44-13.9-6.11-6.68-1.18-11.49.74-11.59,3.03-.1,2.37,7.93,4.54,11.59,5.92,10.56,3.94,21.55,10.77,21.97,22.76h0Z"/>
      </g>
    </g>
    <path class="st5" d="M-2003.03,417.15c3.17-1.52-24.88-214.93-24.88-214.93l-14.48.72,28.33,215.61,11.03-1.4h0Z"/>
    <polygon class="st5" points="-2055.24 172.41 -2062.01 189.66 -2053.22 205.89 -2036.57 213.4 -2026.27 206.31 -2014.49 193.24 -2024.24 169.43 -2042.61 165.98 -2055.24 172.41"/>
    <g>
      <path class="st0" d="M-1459.51,478.84c0-.25,8.04-32.32,8.87-35.8,5.31-20.96,11.52-53.61,13.51-71.01,1.33-12.02,1.24-42.84-.08-51.37-1.49-9.03-5.22-18.56-9.11-22.95l-3.23-3.56-.33,13.67c-.41,13.42-2.32,25.69-4.06,25.69-.41,0-.74-1.57-.74-3.48,0-2.65-.66-4.56-2.65-7.46-1.49-2.24-2.98-3.98-3.23-3.98-1.32,0-11.68,37.12-22.29,79.96-9.94,39.86-24.53,81.7-25.77,82.94M-1508.65,481.5c.17.08-.74,3.32-1.9,7.12-1.24,3.81-4.31,13.42-6.88,21.38-9.53,30.16-24.19,72.5-28.84,83.69-.66,1.57-3.06,7.96-5.3,14.09-6.05,16.49-18.06,46.15-20.38,50.05-4.56,7.79-11.19,25.69-17.4,46.9-1.66,5.72-4.97,16.66-7.46,24.44-2.49,7.71-4.89,15.74-5.3,17.81-1.16,4.89-1.16,18.31-.08,24.53,1.24,6.79,5.55,19.97,8.04,24.11,5.64,9.69,20.55,17.65,32.98,17.65,10.19,0,16.07-3.64,23.86-14.83,8.04-11.35,12.26-14.09,28.75-18.23,10.52-2.74,77.8-21.79,108.55-30.91,21.96-6.38,30.66-10.94,30.66-15.91,0-2.99-2.24-2.99-14.5.17-10.36,2.57-37.62,7.12-38.45,6.38-.5-.58-.83-.41,13.17-7.71,7.04-3.73,13.59-7.29,14.5-7.95,1.49-1.08,1.57-1.24.25-1.74-.83-.33-14.25,1.16-29.83,3.31-45.91,6.21-65.21,9.53-70.68,11.93-4.14,1.91-13.67,9.28-13.34,10.44.08.41,1.41.91,2.82,1.08,1.49.17,2.65.58,2.65.99,0,.66-8.12,2.9-8.7,2.32-.17-.17.33-2.99,1.16-6.3.83-3.32,1.24-6.13,1-6.3-1-.58-12.43,2.15-20.8,5.05-8.53,2.9-24.61,10.44-29.25,13.67-1.32.91-2.57,1.49-2.82,1.24-.99-1.08,7.29-32.31,14-52.28,7.13-21.54,12.35-34.39,24.86-61.82,25.85-56.59,46.82-111.45,59.5-155.78,1.57-5.22,3.48-10.27,4.31-11.27M-1443.68,737.7c-1.91,3.64-5.97,5.96-10.44,5.96h-3.15l2.32-2.9c2.41-3.06,12.01-8.45,12.51-6.96.17.41-.41,2.15-1.24,3.89M-1430.51,740.52c-4.56.83-7.62.75-7.62-.17,0-.5.99-2.4,2.16-4.31l2.24-3.48,3.15,3.64,3.23,3.73-3.15.58h-.01ZM-1469.53,740.85c7.21,1.99,7.29,2.15,1.57,3.64-2.99.74-5.64,1.16-5.88.91-.83-.83-1.57-5.89-.91-5.89.41,0,2.73.58,5.22,1.33"/>
      <path class="st0" d="M-1459.51,478.84c1.33-1.41,2.9-1.82,9.28-2.32,10.19-.66,22.04-2.9,42.34-7.79,16.74-4.14,26.52-7.62,25.94-9.37-.16-.49-1.91-2.15-3.81-3.56-3.23-2.32-4.47-2.65-14.09-3.56-5.8-.58-19.97-1.33-31.4-1.58-11.52-.33-20.96-.74-20.96-.91M-1452.22,449.76c2.77,0-46.98,3.89-48.06,3.98-3.23.08-39.86-1.66-52.87-2.49-6.54-.5-26.1-.66-43.5-.41-27.18.33-31.9.58-33.72,1.74-2.4,1.66-6.63,1.58-9.86-.17-2.07-.99-6.38-1.24-24.53-1.24h-21.96l-.83,2.07c-.91,2.4-1.99,2.57-5.3.83-2.16-1.16-9.12-1.24-53.86-1.08-44,.17-54.03-.08-68.94-1.32-18.97-1.66-19.55-1.58-25.02,2.65-3.81,2.9-.41,8.7,8.62,14.83,6.79,4.72,26.43,10.44,44.25,13.01,34.8,5.06,66.62,6.63,119.98,6.05,23.78-.25,43.25-.33,43.25-.25,0,.17-2.99,5.06-6.63,10.94-6.54,10.44-8.45,14.67-15.08,33.06-6.38,17.65-7.21,19.97-9.78,26.51-1.41,3.64-3.64,9.45-4.89,12.84-1.33,3.4-6.13,16.24-10.77,28.5-4.56,12.26-9.53,26.6-10.94,31.9-6.21,23.29-7.79,28.34-11.52,36.13-3.06,6.46-4.23,10.19-5.39,16.9-.83,5.22-3.98,16.66-7.96,28.92-3.89,11.85-6.38,20.88-6.13,21.79.33.91,1.66,2.15,2.99,2.82,3.64,1.91,3.06,3.15-1.24,2.57-4.06-.66-3.73-1.24-5.14,8.78-.49,3.81-.41,3.98,1.49,3.98,1.08,0,2.74.5,3.65,1.16,1.49,1.16,1.32,1.33-2.41,2.9l-3.89,1.66,2.49,4.06c3.81,6.21,3.4,7.37-1.33,3.81-3.48-2.73-4.39-2.07-2.57,1.74,1.74,3.64,1.74,4.64.17,4.06-3.89-1.49-4.72,4.39-1.99,13.26l1.82,5.64,1.82-2.32,1.91-2.4.49,2.9c.25,1.57.58,4.97.83,7.54.33,4.8,2.41,9.86,3.9,9.86.41,0,4.06-6.79,8.12-15.08,8.12-16.66,11.27-23.95,22.87-52.04,6.46-15.58,19.47-48.64,19.47-49.39,0-.24.58-1.66,1.24-3.06.66-1.49,1.91-4.72,2.82-7.21.91-2.49,3.15-8.7,5.06-13.67,1.82-5.06,8.53-23.7,14.83-41.43,28.17-79.22,31.16-89.99,35.38-127.19.74-6.63,1.49-12.18,1.66-12.34.41-.41,139.29-7.63,139.7-7.21"/>
      <path class="st0" d="M-2028.6,511.08c.25-.25,3.56,2.48,7.38,6.13,11.6,11.19,26.77,20.14,43.5,25.85,13.75,4.73,41.51,9.94,103.65,19.56,19.31,2.99,37.95,5.96,41.43,6.71,23.54,4.8,45.66,13.17,59.83,22.7,11.76,7.96,23.03,21.13,26.51,31.07,2.49,7.13,2.4,20.55-.17,24.53-.74,1.07-1.66,3.32-1.99,4.89-.99,4.47-6.21,16.49-9.78,22.37-8.45,14.09-15.33,21.96-37.04,42.34-32.07,30.24-35.96,33.39-55.93,46.65-29.99,19.97-50.71,32.32-81.78,48.89-8.62,4.56-10.44,6.38-7.62,7.46.74.25,1.16.91.99,1.41-.41,1.32-13.92,6.54-13.92,5.39,0-.5,2.32-2.57,5.06-4.56,2.73-1.99,4.89-3.73,4.72-3.9-.16-.08-3.48.83-7.29,2.07-3.89,1.24-18.14,5.8-31.65,10.03-24.28,7.62-24.69,7.87-24.69,10.03,0,1.24-.5,2.57-.99,2.98-1.66,1.24-8.45,2.9-10.61,2.57-3.07-.41-3.07-2.32-.09-2.32,1.41,0,2.57-.41,2.57-.83,0-1.33-3.64-.99-13.51,1.33-22.79,5.39-36.62.74-44-14.91-7.96-16.82-5.8-37.95,6.3-60.99,9.86-18.73,20.8-32.56,45.41-57.26,32.07-32.23,59.82-54.93,99.52-81.7,40.02-26.93,61.98-38.53,80.71-42.67,7.37-1.58,6.79-3.31-1.66-4.48-18.48-2.57-58.33,8.87-91.56,26.43-25.11,13.26-37.04,20.88-66.95,43-27.59,20.38-36.71,28.26-42.75,36.87-6.8,9.78-16.24,24.53-15.91,24.86.17.25,1.49-.25,2.9-.91,4.89-2.57,3.56.41-3.23,7.21l-6.79,6.79.49-7.04c.34-3.89.75-7.96,1-9.12.33-1.66-.58-.99-4.64,3.32-12.68,13.51-27.67,33.81-33.56,45.57-6.13,12.26-14.17,38.86-13.26,43.92.25,1.57.83,6.79,1.16,11.6,1.41,16.66,4.39,26.77,10.94,36.29,9.03,13.26,29.42,25.35,48.55,28.75,9.94,1.82,35.3,1.82,49.88.09,66.37-7.96,144.84-45.24,210.39-99.85,38.12-31.74,71.17-72.59,84.35-104.32,10.27-24.86,10.27-52.62-.08-76.56-4.14-9.53-8.12-15.16-17.73-24.69-10.86-10.77-21.21-18.14-35.71-25.6-27.18-13.92-50.55-19.8-108.13-27.43-60.99-8.04-88.75-15.83-118.24-33.31-15.25-9.03-15.49-17.82-.91-33.06,22.12-23.12,70.1-50.87,123.88-71.51,26.1-10.03,43.34-13.76,66.12-14.34,28.01-.75,42.76,3.98,51.95,16.57,1.74,2.4,6.55,8.53,10.77,13.67,10.86,13.26,11.44,9.94,1.66-9.28-7.79-15.25-17.07-25.61-28.67-31.9-4.64-2.57-4.31-3.4.66-1.66,4.39,1.57,3.81.24-1.74-3.65-14.25-10.11-30.66-14.83-54.94-15.74-5.47-.25-13.26-.17-17.4.25-8.37.74-19.14,2.65-29,5.06-11.6,2.9-34.8,9.77-38.78,11.43-2.07.91-6.96,2.24-10.94,2.98-15.16,2.82-20.63,5.55-49.14,24.19-28.5,18.73-37.12,25.19-53.86,40.77-11.02,10.19-15.66,16.82-18.89,26.6-2.07,6.38-2.32,8.12-2.24,18.23,0,9.86.33,12.02,2.32,18.23,2.65,8.2,5.14,13.42,9.69,20.14M-1949.38,623.77c0,1.91-5.14,6.46-11.68,10.19-3.4,1.99-6.96,4.39-7.79,5.3-1.74,1.91-2.9,2.16-2.82.58,0-.99,20.38-17.07,21.71-17.15.33,0,.58.5.58,1.08M-1990.06,654.51c-.41.17-14.67,11.85-16.74,13.67-1.32,1.08-1.66,1.08-3.23-.49l-1.74-1.82,3.98-2.32c2.16-1.24,6.96-4.23,10.69-6.46,3.65-2.32,6.88-3.89,7.04-3.48.08.33.08.74,0,.91M-2035.88,693.21c.33.49-2.99,4.39-7.63,9.11-7.37,7.46-10.11,9.61-9.28,7.46.5-1.41,14.83-17.49,15.58-17.49.41,0,.99.41,1.33.91"/>
      <g>
        <path class="st0" d="M-2029.84,511.33c-.66.75-.83,3.32-.58,7.87.5,7.87-.49,9.77-5.97,11.43-4.06,1.24-10.27,6.63-12.43,10.86-3.48,6.88-2.65,14.91,2.24,21.21,3.23,4.22,5.22,9.44,5.22,13.92,0,1.99.25,4.81.5,6.21.99,4.97,1.99,2.49,1.99-4.89,0-4.97.33-7.46.91-7.46,2.73,0,7.7,2.24,9.2,4.06,1.41,1.91,1.58,2.9,1.08,7.79-.58,6.46.16,13.26,1.49,12.76,1.66-.49,2.07-5.39,1.24-12.68-1.08-8.78-.41-10.6,4.31-12.02,2.07-.66,3.64-.74,4.14-.24.41.41,1.08,4.06,1.33,8.04.83,10.44,2.4,9.11,2.4-1.99,0-8.53,0-8.7,3.64-15.91,3.4-6.79,3.56-7.54,3.15-12.18-.83-9.28-6.05-15.41-16.16-18.64l-5.55-1.82-.66-8.04c-.41-4.48-.49-8.29-.25-8.54M-2017.82,535.44c4.39,3.15,7.13,8.45,7.13,14.01s-.83,7.62-4.23,11.43c-7.37,8.45-19.8,8.45-27.09.08-1.49-1.66-3.15-3.98-3.56-5.14-1.16-3.23-.83-8.7.83-12.26,4.64-9.94,18.4-14.09,26.93-8.12"/>
        <path class="st0" d="M-2029.84,543.72c-.24,1.66.33,5.72,1,7.46.49,1.41,1.32,1.91,3.15,1.91,3.65,0,3.81-1.24.91-5.8-2.32-3.64-4.81-5.39-5.06-3.56"/>
        <path class="st0" d="M-2015.92,592.45c-.33,2.16-.58,4.97-.58,6.13l.09,2.16,1.99-2.49c2.4-2.99,2.57-5.06.5-7.79l-1.49-1.91-.5,3.89h-.01Z"/>
        <path class="st0" d="M-2041.68,590.46c-.17.66-.91,4.14-1.66,7.79-2.24,10.86-6.13,15-15,16.07-5.3.66-5.06,1.99.5,2.82,8.2,1.16,13.17-1.66,13.17-7.71,0-1.57.99-4.39,2.07-6.22,1.99-3.15,1.99-3.23,2.74-1.24,1.08,2.9,2.07.74,2.15-4.64,0-3.56-.33-4.89-1.74-6.29-1.41-1.41-1.91-1.58-2.24-.58"/>
        <path class="st0" d="M-2026.69,599.24c-.83,1.41-3.73,14.34-4.22,19.31-.41,3.81-.25,4.89,1.16,6.54l1.74,1.99,3.73-2.65,3.64-2.74,7.46,1.16c4.14.66,7.62.99,7.87.83.25-.25.41-2.07.41-4.06s.25-3.56.5-3.56c.33,0,2.4,1.08,4.56,2.49,4.56,2.82,5.14,2.07,1.74-2.4-1.32-1.66-4.39-5.97-6.88-9.53-4.06-5.97-4.47-6.38-4.72-4.39-.33,2.48-1.16,2.82-2.65.99-2.24-2.65-3.06-1.33-3.81,6.38-.74,7.79-2.07,10.03-3.56,6.3-.5-1.08-2.07-5.39-3.65-9.69-1.57-4.31-3.06-7.38-3.31-6.96"/>
      </g>
      <path class="st0" d="M-1779.93,804.07c-6.79.25-12.93.83-13.59,1.24-1.24.75-1.16,3.65.74,25.36,3.23,38.78,5.22,58.42,5.88,60.24.91,2.57,4.31,4.56,8.53,4.97,3.15.41,3.81.17,4.97-1.57,1.24-1.91,1.24-3.31.08-16.91-.66-8.12-1.24-15.82-1.24-17.07v-2.32h13.09c16.07,0,18.64-.83,19.06-6.3.49-7.04-3.06-8.37-21.88-8.53-7.37-.09-9.44-.34-10.36-1.41-.91-1.07-3.06-13.92-3.23-18.64,0-1.16,2.49-1.41,21.79-1.82,11.93-.25,22.29-.66,23.04-.99,2.32-.91,3.56-4.47,3.56-10.61l.08-5.96-19.06-.09c-10.44,0-24.61.17-31.49.41"/>
      <path class="st0" d="M-1716.13,840.36c-5.97.5-6.38,1.16-5.88,8.04.25,3.23.66,14.91,1,26.02.49,18.06.66,20.22,1.99,21.13,1.24.83,4.14.83,15.58-.34,7.71-.74,14.42-1.57,15-1.9,1.41-.91,1.08-2.65-.99-5.06l-1.91-2.24-9.36.74c-5.14.41-9.45.5-9.61.25-.17-.25-.5-3.31-.83-6.88l-.58-6.38h4.39c5.96-.08,10.6-1.16,12.51-3.15,1.05-1.05.72-2.32-.99-3.81-2.57-2.07-2.9-2.16-9.2-1.66l-6.54.58v-7.46c0-5.97.25-7.71,1.33-8.62.91-.74,4.56-1.32,10.6-1.57l9.2-.41.25-2.73c.5-4.72-.5-5.14-11.76-4.97-5.47.09-11.85.25-14.17.41"/>
      <path class="st0" d="M-1667.74,833.49c-9.53,2.57-16.49,9.61-16.49,16.74,0,5.8,3.98,9.28,20.63,18.14,8.45,4.47,11.11,7.21,11.11,11.27,0,4.56-1.58,5.05-15.16,4.8-6.63-.08-12.51-.08-13.01,0-1.16.08-1.41,4.14-.5,7.38l.5,1.99,13.34-.33c11.52-.25,13.76-.5,16.24-1.91,3.73-2.16,6.63-7.96,7.21-14.25.91-9.61-2.82-13.67-16.16-17.49-9.78-2.9-12.02-4.14-13.92-7.71-3.39-6.71,5.72-11.68,16.66-9.03,3.06.74,3.48.66,5.64-1.66,1.24-1.41,2.24-2.99,2.24-3.56,0-4.64-9.28-6.88-18.31-4.39"/>
      <path class="st0" d="M-1610.89,838.21c-3.64.41-11.76,1.07-18.06,1.41-7.87.49-11.68.99-12.1,1.74-.41.58-.34,2.57.16,4.31l.75,3.23h8.21c6.21,0,8.37.33,9.36,1.33.75.66,1.33,1.66,1.33,2.15,0,2.9,4.39,39.77,5.06,42.18.41,1.74,1.32,3.23,1.99,3.56,1.57.58,5.96-.99,6.46-2.4.41-.99-1.33-32.23-2.32-41.93l-.5-4.64,2.65-.58c1.41-.25,4.97-.5,7.87-.5,5.8,0,7.29-.91,8.2-5.14.5-2.16.25-2.9-1.24-4.14-2.07-1.66-6.38-1.82-17.81-.58"/>
      <path class="st0" d="M-1583.96,841.69c-2.07.99-2.07,1.16-2.82,16.74-.66,15.83-.08,34.8,1.16,36.87.91,1.49,6.54,1.16,8.37-.5,1.49-1.32,1.57-3.06,1.57-26.35,0-13.76-.33-25.36-.66-25.86-.99-1.57-5.39-2.07-7.62-.91"/>
      <path class="st0" d="M-1567.97,842.27c-1.49.91-2.74,2.32-2.74,3.06,0,.83,2.4,6.13,5.3,11.85s7.21,15.58,9.53,21.96c6.63,17.98,5.97,16.99,10.61,16.99,2.24,0,4.48-.33,4.97-.66.58-.33,1.41-2.48,1.82-4.81.41-2.24,2.65-10.94,4.89-19.39,2.32-8.45,4.72-17.56,5.39-20.3.74-2.73,1.49-5.55,1.82-6.3.91-2.32-1.82-4.06-6.3-4.06-2.57,0-4.22.41-4.39.99s-.91,4.97-1.66,9.78c-.75,4.81-2.07,11.85-2.98,15.74s-1.91,7.96-2.16,9.03c-.33,1.74-.58,1.83-1.57.83-.91-.99-6.96-15.24-12.68-30.16-2.48-6.46-4.97-7.62-9.86-4.56"/>
      <path class="st0" d="M-1502.93,840.36c-1.08,1.33-18.89,52.29-18.89,54.11,0,.74,4.47,2.49,6.3,2.49s3.48-3.31,5.47-10.44l1.91-6.54,8.7-.66c4.81-.33,9.45-.41,10.44-.17,1.74.41,3.23,2.82,5.88,9.94,1.99,5.14,5.64,7.62,9.53,6.54,5.14-1.49,4.97-2.57-1.99-16.32-7.46-14.58-18.15-33.72-21.13-37.7-2.24-2.98-4.31-3.39-6.22-1.24"/>
      <path class="st0" d="M-1463.65,838.79c-.74.49-.83,1.74-.17,5.14.41,2.4.83,14.5.83,26.93,0,17.07.25,22.79,1.08,23.45.5.41,7.54,1.08,15.49,1.41,16.99.66,16.9.75,16.99-6.96v-4.64l-10.94.33c-10.94.25-11.02.25-11.68-1.66-1.16-2.98-2.07-17.98-1.91-30.32.17-10.03,0-11.11-1.49-12.59-1.74-1.74-6.13-2.32-8.21-1.08"/>
    </g>
  </g>
</svg>