<?xml version="1.0" encoding="UTF-8"?>
<svg id="Layer_2" data-name="Layer 2" xmlns="http://www.w3.org/2000/svg" viewBox="0 0 916 857.8">
  <defs>
    <style>
      .cls-1 {
        fill: #fe4f2d;
      }

      .cls-2 {
        fill: #6d4a1a;
      }

      .cls-3 {
        fill: #0d422f;
      }

      .cls-4 {
        fill: #fe9c28;
      }

      .cls-5 {
        fill: #fd4d2d;
      }
    </style>
  </defs>
  <g id="Layer_1-2" data-name="Layer 1">
    <g>
      <path class="cls-3" d="M739.22,835.45c-6.34-1.36-16.78.22-23.43,1.25-2.36,5.91-2.67,12.29-6.49,17.79-2.09,3.01-9.66.81-9.95-2.27,6.38-21.18,13.89-41.64,21.52-62.16.59-1.59,3.47-3.41,4.59-2.67,3.87,2.56,6.07,6.13,8.25,10.05,9.8,17.57,20.03,34.6,27.53,53.4-.93,2.88-5.95,4.54-8.33,3.97-9.12-2.21-8.39-11.95-13.69-19.36Z"/>
      <path class="cls-3" d="M554.69,841.56c-5.77,15.84-25.55,8.95-41.49,10.36-1.34-3.07-2.29-8.61-.43-10.84,10.36-3.87,19.45,2.98,31.48-1.98,3.26-1.34,1.66-6.88-.33-9.15-6.26-7.17-27.64-13.49-33.77-23.94-3.59-6.13.3-13.48,4.93-17.73,12.25-11.24,32.96-10.47,34.76-2.9.78,3.28-3.65,8.79-7.07,8.05-6.61-1.44-12.48-2.4-18.46,1.04-2.02,1.16-3.5,3.06-3.45,5.14.29,14.34,27.79,8.75,34.94,23.6,2.81,5.85.98,12.62-1.1,18.35Z"/>
      <path class="cls-3" d="M479.31,843.78c3.57.45,17.78-1.59,21.2-1.08,3.05.46,5.31,5.74,5.01,8.48-8.6,2.58-29.78,4.62-37.88,3.42-1.87-5.21-1.87-10.26-1.6-15.59s-.74-9.93-.85-14.97l-.51-22.77c-.09-3.81-1.86-8.14,1.68-10.92,2.97-2.33,7.1-.77,10.68-1.29,7.17-1.04,14.18-1.69,21.22-.37,3.65.68,4.97,2.58,4.97,5.91,0,7.8-17.16,2.08-24.92,6.13l-.3,17.21c7.38.99,19.04-3.11,19.76,6.51-5.13,5.08-12.98,4.47-19.55,4.55-.64,5.08-.3,9.97,1.09,14.78Z"/>
      <path class="cls-3" d="M695.14,792.59l-16.14,60.62c-1.61,2.51-8.8,2.63-11.1.97-2.69-1.94-3.54-5.54-4.61-8.51-5.87-16.11-12.26-31.48-20.28-46.6-1.63-3.07-.9-5.39,1.69-7.36,1.94-1.48,4.21-2.77,6.57-2.46,2.57.33,3.99,2.8,5.13,5.48,5.33,12.47,9.5,24.94,16.03,37.81,4.95-13.69,5.82-28.09,9.15-42.13,3.18-2.75,10.39-1.64,13.56,2.18Z"/>
      <path class="cls-3" d="M591.75,857.66c-3.46-1.24-3.56-5.62-3.91-8.53l-4.82-40.11c-.38-3.16.06-8.64-4.14-8.73l-17.81-.36c-1.5-2.82-2.32-6.39-1.97-9.67,6.86-2.74,13.73-1.92,20.77-2.5l11.16-.92,11.09-1.03c4.99-.46,10.77-1.71,15.13,2.25,2.2,1.99.33,6.72-1.16,8.47-4.49,5.29-13.5.28-20.37,3.82,1.98,11.6,4.18,43.72,2.87,54.35-.22,1.78-4.96,3.62-6.83,2.95Z"/>
      <path class="cls-3" d="M808,850c0,2.81-2.06,5.09-5.02,4.98-5.37-.19-10.62.4-16-.15-13.88-1.43-18.73.64-18.79-7.07l-.32-44.76c-.04-5.02-2.29-10.72-.23-15.45,1.19-2.73,5.58-.94,7.61-.36,2.73.77,4.45,3.66,4.51,7.15l.62,35.41c.05,2.93.22,6.83,1.68,9.26,3.02,5.03,19.31-.63,25.91,1.2l.03,9.81Z"/>
      <path class="cls-3" d="M635.25,852.88c-2.51,3.23-7.36,2.23-10.64,1.69-.6-2.76-1.64-4.9-1.63-7.58l.18-44.97c.01-3.26.49-7.96,2.27-10.59,2.03-2.98,7.53-1.24,10.32-.26-.15,3.02,1.14,5.27,1.14,7.97l.02,47.77c0,1.6-.53,4.48-1.68,5.96Z"/>
      <g>
        <path class="cls-3" d="M144.82,531.31c-4.39,1.75-6.89-3.15-10.82-3.8-.33,2.57,1.03,7.38-1.2,8.52l-17.66-1.5c-3.54-.3-5.82,4.38-8.64,5.6-4.2-2.66-5.27-6.91-4.19-11.41,1.77-7.34,1.95-14.88,5.68-22.33l9.56,22.1c2.35-3.14,2.03-18.91,4.94-18.99.57-.02,3.34,4.11,3.96,2.85l1.77-3.6,16.59,22.56Z"/>
        <path class="cls-3" d="M91.2,509.29c-6.46,9.22-2.34,12.5-7.14,16.72-3.86,3.39-15.2,3.48-18.67.3,7.17-3.93,17.64-1.29,20.98-14.66l4.16-16.7c6.56,2.68,4.84,14.39,2.95,17.51-1.24-1.3-1.07-2.49-2.28-3.16Z"/>
        <path class="cls-3" d="M119.17,508.84l1.08-15.03c3.58,1.85,3.31,4.34,4.89,6.76-1.28,3.1-1.75,6.41-5.97,8.27Z"/>
        <path class="cls-3" d="M112.67,452.19c-.55,1.74-5.81,2.03-6.8.54-2.26-3.42-2.55-8.03-1.16-11.87,4.71,2.01,7.77,7.08,7.96,11.33Z"/>
      </g>
      <g>
        <path class="cls-3" d="M441.31,803.71c-1.59,8.08-8.73,5.61-20.39,7.12-5.66.73-11.14-.17-16.72.26-1.56,8.11,4.61,37.73.4,42-4.88,4.95-14.39-1.22-15.14-2.56-2.61-4.66-2.33-10.73-2.83-16.15l-6.29-68.47c-.52-5.69-.52-11.04-.15-16.91.11-1.74,4.19-2.19,5.65-1.88,3.13.65,5.64-.81,8.45-.81l62.15-.14c1.05,8.92,1.46,21.04-9.46,21.06-7.2.02-14.46.08-21.57.36l-24.22.95c-3.04.12,1.36,19.73,2.46,22.07,1.58,3.37,19.57-.79,33.87,3.97,4.1,1.37,4.35,6.29,3.79,9.12Z"/>
        <g>
          <path class="cls-3" d="M116.99,38.12c-3.47,2.95-6.12,6.49-9.69,10.31l21.58,172.19,6.39,58.69c21.53-15.97,43.32-29.74,65.5-43.82,11.55-7.34,23.21-9.53,36.15-13.22l59.67-17c27.82-7.93,56.6-6.74,84.4-.32,8.09,1.87,15.61,6.34,23.2,9.56,3.97,1.68,7.27,6.42,11.17,8.44l-5,1.43c6.85,4,13,8.68,18.62,14.17,8.93,8.73,27.71,42.49,23.51,44.06-1.06.4-2.49-.04-3.37-1.11l-14.85-18.1c-4.1-5-7.41-10.38-12.73-14.29-8.71-6.4-19.09-9.17-30.03-9.94-32.29-2.27-56.86.91-87.46,11.65-41.92,14.72-86.89,36.21-123.92,60.95-14.78,9.88-28.2,20.69-39.58,34.33-4.33,5.19-7.22,11.49-5.14,18.41,1.46,4.85,6.21,8.36,10.59,11.09,18.32,11.43,37.69,19.59,58.63,25.26,49.18,13.32,96.94,14.76,146.52,25.41,19.57,4.2,37.62,9.71,55.61,18.47,24.27,11.83,46.7,27.08,62.26,49.61,12.87,18.65,16.89,41.53,15.95,63.95-.9,21.47-8.2,40.7-18.96,59.03-12.46,21.22-26.83,40.27-43.57,58.36-10.23,11.06-20.14,21.41-31.47,31.52-41.48,37.04-87.69,67.8-138.01,91.64-37.07,17.56-88.38,35.18-128.89,38.1l-10.18.73c-10.78.78-26.03.5-36.98-.8-23.05-2.74-46.2-14.68-60.95-32.78-8.65-10.62-11.78-23.77-13.66-37.33-.89-6.43.22-13.01-2.31-18.66v-6.99c4.49-16.49,11.23-40.49,20.65-55.31,10.03-15.78,25.96-36.99,40.73-50.15l-1.31,18.83,9.69-9.51c1.8-1.77,3.82-3.46,3.94-6.04-3.04.97-4.04,3.17-6.91,2.04,6.48-10.21,19.44-31.65,27.59-39.16l7.92-7.3c19.15-17.66,40.81-31.55,62.29-46.54,19.13-13.34,38.54-24.26,59.39-34.63,22.02-10.95,84.23-35.42,107.24-23.79-1.31,1.82-3.58,2.8-5.82,3.27-10.48,2.2-19.89,5.82-29.45,10.52-13.81,6.78-26.75,13.92-39.63,22.32l-29.13,19.01c-29.04,18.95-56.11,39.66-81.65,63.04l-11.63,10.64c-12.9,11.8-24.86,24.01-36.9,36.85-22.28,23.77-45.75,55.53-49.38,88.84-1.61,14.74,1.93,33.22,12.7,43.59,19.64,18.92,53.99.15,59.2,4.39.72.58.07,1.23-.55,1.56-1.34.71-3.34.05-3.93.87-.2.29.98,1.59,1.43,1.55,21.23-1.75,7.94-7.19,18.26-10.45l70.64-22.33-10.61,10.03c5.66-.71,9.88-3.52,14.63-5.6-1.03-1.55-3.45-3.02-2.21-4.2,3.19-3.06,7.01-5.19,11.04-7.26,30.03-15.44,58.17-32.78,86.68-51,23.91-15.29,45-32.07,65.05-51.85,5.8-5.72,11.46-11.31,17.53-16.48s10.99-10.86,16.41-16.72c14.44-15.61,24.5-33.91,31.01-53.99,1.78-5.49,3.44-9.79,3.4-15.81-.07-10.08-2.47-18.68-8.42-26.89-10.57-14.56-24.09-25.68-40.57-33.39-22.06-10.33-44.72-16.32-68.89-20.11l-75.98-11.92-58.36-10.66c-25.92-4.74-54.4-18.12-72.91-36.96-2.21-2.25-5.03-3.39-6.87-6.14-1.34,9.51.66,10.71.83,18.98,7.47,2.03,14.89,4.3,19.77,10.23,13.34,16.18.17,28.63-1.47,36.15s1.04,14.91-2.94,22.12l-3-17.85c-19.51-3.61-1.86,23.46-11.68,29.06-3.63-5.48-.59-18.4-2.33-23.3-1.39-3.9-7.65-5.37-11.37-5.28-.54,6.07.9,11.4-1.57,17.29-7.15-15.06,3.72-8.38-9.67-28.89-6.87-10.52-4.66-23,4.78-30.56,3-2.4,5.12-5.1,9.3-5.88,3.6-.67,6.13-4,6.09-7.76l-.1-10.11c-.02-2.11.35-3.88,1.75-5.26l-9.52-15.8c-7.78-12.92-9.59-32.57-7.7-47.48,3.89-30.74,34.39-45.66,33.76-50.45l-31.01-236.28c-4.53-2.88-11.24-2.81-13.57-6.71l-11.11-18.62,8.82-20.7c18.42-11.07,15.21-6.84,36.72-3.48l11.38,27.98-5.47,6.46ZM409.63,223.22c0-.35-.28-.63-.63-.63s-.63.28-.63.63.28.63.63.63.63-.28.63-.63ZM125.98,449.35c0-11.11-9.02-20.12-20.14-20.12s-20.14,9.01-20.14,20.12,9.02,20.12,20.14,20.12,20.14-9.01,20.14-20.12ZM198.2,536.82c5.47-8.35-22.39,14.13-18.62,12.66,7.49-2.45,12.94-7.24,18.62-12.66ZM177.63,551.84c0-.35-.28-.63-.63-.63s-.63.28-.63.63.28.63.63.63.63-.28.63-.63ZM148.55,572.34c-8.28,3.59-14.65,8.28-22.09,12.74-1,.6.94,2.45,1.68,2.84,2.35,1.24,17.88-13.22,20.41-15.58ZM95.72,616.19c-3.78,3.23-6.89,6.78-9.92,10.86-1.61,2.16-4.93,3.03-4.69,6.64-.78,2.75,19.64-18.93,14.61-17.5Z"/>
          <circle class="cls-4" cx="409" cy="223.22" r=".63"/>
        </g>
      </g>
      <g>
        <path class="cls-3" d="M796.99,171.76c5.51,23.54,2.98,69.79-1.09,92.92s-8.66,44.54-14.32,66.78c3.65-.19,6.44.9,9.5.94l23.99.38c6.08.1,11.8.43,18.03.97l13.61,1.2c7.13.63,13.42,2.61,17.69,8.95-3.43,2.82-7.48,4.02-11.84,5.37-21.46,6.65-43.08,11.43-65.44,14.45-4.18.56-9.74-.27-12.93,2.03-3.43,2.48-4.53,8.27-5.72,12.13l-9.22,30.03c-15.85,51.62-36.74,101.05-59.51,150.26-20.25,43.74-37.17,88.24-47.27,136.64,20.26-11.16,39.87-20.26,62.3-23.7-.29,5.86-1.85,9.91-2.84,15.23l9.19-2.64c-2.55-1.24-4.67-.2-6.77-2.68,5.55-4.33,10.22-9.15,16.4-11.96,11.58-5.27,87.43-14.74,105.15-16.98,5.1-.64,9.89-1.91,14.97.03l-33.53,19.08c19.67-1.35,37.27-5.95,55.69-9.93,2.22-.48,5.48-.39,5.62,2.26.5,9.67-25.98,16.73-34.36,19.13l-108.59,31.11-27.56,7.48c-24.82,6.74-23.5,21.37-38.62,32.36s-45.18.29-54.69-16.29c-8.42-14.68-12.73-35.81-10.42-52.85,1.7-12.5,6.48-23.69,10.12-35.63l12.36-40.53c4.09-13.4,10.08-24.63,15.62-37.49,23.9-55.53,43.76-111.93,62.18-169.5,3.5-10.93,7.04-20.73,9.68-31.5-4.27-1.44-7.67.83-11.33.66-7.22-.34-13.92.5-20.96.87l-18.03.93-20.98,1.08c-6.17.32-11.93.95-18.02,1.07l-15.08.29c-1.84,3.69-2,8.1-2.42,12.44-2.2,22.61-5.61,44.39-12.84,66.08l-17.47,52.42-17.27,48.79c-19.76,55.82-39.43,111.19-64.9,164.57l-7.52,15.77c-2.73,5.73-6.3,10.97-9.22,17.21-6.97-6.89-4.29-15.08-6.71-23.93-.9,2-1.99,3.24-4.24,5.03-.81-4.59-10.35-23.91,1.71-23.21.52-2.01-5.58-7.24-1.67-8.39l7.64,3.77-6.13-10.94c2.93-1.72,5.77-1.9,8.69-4.07-2.26-2.24-4.81-1.9-7.5-2.18-.29-3.51.45-14.58,3.59-15.77,2.38-.9,6.43,2.2,6.25-.64-.04-.64-6.13-3.45-5.77-5.45,2.5-13.93,12.55-37.96,15.88-55.85,4.32-23.22,9.34-23.36,14.81-44.18,4.21-16,8.41-31.1,14.27-46.73l32.38-86.33c4.35-11.59,7.18-23.08,13.49-33.6l13.11-21.88-115.5-.53-18.67-.84-12-.91c-27.59-2.09-56.53-5.27-82.68-14.03-8.51-2.85-26.78-11.9-25.33-21.15.26-1.62,2-3.45,3.91-4.84,5.9-4.28,13.28-2.65,20.27-2.08l12.84,1.04,16.66.87,118.92.63c2.54.01,4.56,3.09,7.22,1.46.98-.6,1.42-2.72,2.53-3.68l52.31.29c3.31.02,6.79,3.95,10.18,2.51,4.9-2.08,9.64-3.64,15.21-2.79,5.14.78,9.98-.85,14.98-.86,19.47-.07,38.44-.65,57.67.26l16.37.78c4.32.21,8.46,1.47,12.99.82,3.82-.55,7.38.72,11.07.78l18.93.35c3.12.06,7.45,2,10.4.3l17.67-60.38,20.65-77.99c1.76-6.66,3.43-12.6,6.28-19.28,5.7,4.16,7.06,10.06,8.13,17.31,3.82-8.28,4.18-17.42,3.96-25.93-.11-4.49.61-8.02.8-12.09l.38-7.99c6.88,5.62,10.41,13.84,12.71,22.06ZM809.44,671.3c-2.43-2.77-4.65-4.26-6.38-7.75-2.43,3.25-3.39,5.49-5.1,8.56,3.89-.14,6.78.95,11.48-.81ZM790.02,665.18c-5.24,2.73-10.69,5.29-13.33,10.45,14.64.69,17.51-12.63,13.33-10.45ZM766.85,675.06c-4.48-1.33-7.54-2.61-11.86-2.99,1.08,2.22,1.15,3.63,1.06,6.32,3.69-1.57,6.87-.82,10.81-3.32Z"/>
        <g>
          <g>
            <path class="cls-4" d="M717.87,138.82c-1.67-4.59.77,14.8,1.13,9.99-.04-.33,0-.67,0-1,.31.1,1.11.58,1,1h-1l5.32,42.93c1.99,16.04,3.2,31.82,1.5,47.66-.6,5.62-3.26,8.79-8.59,9.74-9.41,1.66-18.69,1.21-28.29-.17l-36.77-5.27-11.17-.7c-3.64-.23-7.37-.85-10.95-1.05l-16-.93-24.7-.88-155.15-.55-5.2-1.05c-5.63-5.5-11.77-10.17-18.62-14.17l5-1.43c-3.9-2.02-7.2-6.76-11.17-8.44,3.41-3.65,7.77-6.7,9.22-12.12,5.56-20.83-3.76-68.46-8.11-90.93-3.36-8.05-4.11-16.3-8.4-23.75,5.58,28.5,16.34,72.81,12.58,100.26-2.01,14.65-16.8,15.98-28.49,17-27.81-6.42-56.58-7.61-84.4.32l-59.67,17c-12.94,3.69-24.6,5.88-36.15,13.22-22.18,14.08-43.96,27.86-65.5,43.82l-6.39-58.69-21.58-172.19c3.57-3.82,6.21-7.35,9.69-10.31,30.01-11.52,61.37-20.56,93.92-22.39l19.08-1.07c36.88-2.08,78.05,4.91,110.75,22.46,17.91,9.6,34.84,19.6,49.39,33.66,2.82,2.73,3.64,6.5,9.04,5.2,3.33-.8,7.36.64,10.89.71l33.52.71,33.81,1.05,32.19.94,31.81,1.07,29.18.94,27.8,1.08,23.19.88c21.91.83,44.97,2.02,65.11,11.97,37.67,18.62,23.9,22.77,31.2,43.52ZM198,62.94c-1.1-.22-3.29.66-4.37,1.54-10.95,8.91-21.16,17.8-32.05,27.83l12.94,27.03c3.32-2.15,11.46-8.65,12.55-8.41,1.05,14.23.48,42.43-.24,56.68-8.32,1.4-16.64,2.94-25.22,4.84-.79.17-.53,2.29-.61,2.46-1.11.23-3.12.48-4.42,1.44-.66,11.66-1.15,23.37-.51,35.68l84.45-19.64c2.09-.49,3.52-.94,3.89-2.78,1.03-.26,3.45-.06,4.45-1.09.11-10.29.64-20.14,1.37-30.89l-34.64,4.55c1.9-34.27,1.11-67.29.11-101.29-2.9-.1-18.65-1.03-17.71,2.04ZM299.86,69.89c-17.57,3.77-31.78,17.04-38.47,31.83-8.68,19.18-6.6,39.17,3.69,55.92,10.85,17.65,30.21,27.16,50.73,23.82,10.61-1.73,21.5-4.2,31.19-9.68,2.49-.09,4.27-1.94,6.72-3.28,24.2-13.18,35.33-35.08,22.27-61.01s-48.68-46.64-76.13-37.6ZM397.09,84.57c-.57-1.04-1.1-.61-1.23.54.16,2.32,1.36,2.02,1.23-.54ZM470.32,122.95c-.46.52-2.38.18-2.88,1.37l-17.93,41.89-20.23,47c3.64.32,15.66,0,15.61-3.45,1.55-.21,2.43-.88,3.17-2.8l4.97-12.84c8.68-1.17,17.48-1.58,27.13-2.14l3.25,16.55c3.02-.08,15.17.86,14.59-2.7.8.04,1.65.23,3.05-.51l-15.55-84.18c-2.79.06-15.91-1.22-15.17,1.81ZM515.88,122.84c-.58.2-1.63.07-2.1.42-1.04.77-.96,1.91-1.12,3.39l-8.69,81.04c4.06-.51,14.49,1.08,13.56-2.85.15.03,2.73.32,2.82-.53l4.44-42.55,27.32,43.86c1.52,2.45,8.91,2.12,9.1-1.05.75.08,1.58.15,2.17-.16.83-.43.87-1.3.94-2.49l4.95-78.23c-2.87-.33-13.09-2.31-12.49.9-1.19-.08-2.71-.2-2.9,2.2l-3,39.07c-9.73-13.79-16.84-29.29-25.96-44.04-.47-.76-9.91-2.22-9.05,1.01ZM595,128.71c-24.64,10.1-32.94,42.19-17.31,65.19,10.95,16.12,31.87,15.49,43.36,4.9,21.02-14.02,21.83-43.87,4.87-62.7-8.31-9.23-20.33-11.73-30.92-7.39ZM663,136.68c-6.84.49-13.44,7.31-15.52,12.38-3.09,7.53-1.54,15.9,3.83,21.34,10.64,10.8,37.25,12.63,32.64,19.24-10.85,1.44-21.73-1.37-31.23-7.54-.73-.47-1.25-.85-1.94-.71-.65.13-1.16.98-1.65,1.4-1.97-1.64-7.66,10.53-8.6,13.14,14.25,11.81,36.8,18.29,52.6,7.02,6.69-4.77,9.88-12,6.1-20.97-2.64-6.27-8.41-11.14-14.59-14.69-9.42-5.41-24.59-7.79-22.91-12.46,7.67-2.96,16.59.09,23.85,4.4,1.78,1.06,2.89,1.61,4.33.23.46-.44,1.71-.27,2.2-1.34,1.71-3.81,4.08-6.84,5.47-11.03-7.28-7.32-25.87-14.71-34.58-10.41Z"/>
            <path class="cls-1" d="M404.2,214.5c-7.59-3.22-15.11-7.69-23.2-9.56,11.69-1.01,26.49-2.35,28.49-17,3.76-27.45-7-71.76-12.58-100.26,4.29,7.45,5.04,15.71,8.4,23.75,4.35,22.47,13.67,70.1,8.11,90.93-1.45,5.42-5.81,8.48-9.22,12.12Z"/>
            <path class="cls-1" d="M397.09,84.57c.14,2.57-1.07,2.86-1.23.54.13-1.15.66-1.59,1.23-.54Z"/>
            <path class="cls-4" d="M329,151.67c-13.61,2.59-27.65-.93-37.16-11.68s-8.43-25.31,1.49-34.82c1.17-1.12,2.28-2.01,2.76-3.23,4.16-1.47,7.3-4.49,11.79-5.35,16.5-3.14,33.88,5.43,42.26,19.74,4.16,7.11,3.9,15.17.12,21.61-5.01,8.54-13.21,10.59-21.25,13.73Z"/>
            <g>
              <path class="cls-5" d="M347,171.78c-9.7,5.47-20.58,7.95-31.19,9.68-20.52,3.34-39.88-6.17-50.73-23.82-10.29-16.75-12.36-36.74-3.69-55.92,6.69-14.79,20.9-28.06,38.47-31.83,2.92,1.1,5.79-1.33,9.3-1.11,42.83,2.7,79.11,44.19,64.09,77.07-5.34,11.68-15.5,19.86-26.25,25.93ZM296.08,101.95c-8.1,2.9-13.68,11.34-15.14,19.46-1.64,9.1,2.38,17.97,9.35,23.93,10.91,9.33,25.49,11.49,38.71,6.34,8.03-3.13,16.23-5.18,21.25-13.73,3.78-6.44,4.05-14.51-.12-21.61-8.38-14.3-25.76-22.88-42.26-19.74-4.49.86-7.63,3.88-11.79,5.35Z"/>
              <path class="cls-2" d="M347,171.78c10.75-6.07,20.92-14.26,26.25-25.93,15.03-32.88-21.26-74.37-64.09-77.07-3.51-.22-6.38,2.21-9.3,1.11,27.45-9.04,62.92,11.4,76.13,37.6s1.93,47.83-22.27,61.01c-2.45,1.33-4.24,3.19-6.72,3.28Z"/>
              <path class="cls-2" d="M329,151.67c-13.22,5.16-27.8,3-38.71-6.34-6.97-5.96-10.99-14.82-9.35-23.93,1.47-8.12,7.04-16.56,15.14-19.46-.48,1.22-1.59,2.11-2.76,3.23-9.92,9.51-10.65,24.46-1.49,34.82s23.55,14.27,37.16,11.68Z"/>
            </g>
            <g>
              <path class="cls-5" d="M198,62.94c4.06.83,8.11-.24,12.85.36,1.15,34.22,1.76,67.92.15,101.96,12.49-1.69,22.78-3.98,34.36-4.88-.22,10.36-1.47,19.78-.95,29.24-.36,1.85-1.8,2.29-3.89,2.78l-84.45,19.64c-.65-12.32-.16-24.02.51-35.68,1.3-.96,3.31-1.22,4.42-1.44l24.95-5.05c.81-.16.85-1.71.88-2.25.72-14.25,1.28-42.45.24-56.68-1.09-.24-9.23,6.25-12.55,8.41l-12.94-27.03c10.9-10.03,21.1-18.92,32.05-27.83,1.09-.88,3.27-1.77,4.37-1.54Z"/>
              <path class="cls-2" d="M244.41,189.63c-.52-9.46.73-18.89.95-29.24-11.58.9-21.87,3.19-34.36,4.88,1.61-34.05,1-67.74-.15-101.96-4.74-.6-8.79.47-12.85-.36-.94-3.07,14.8-2.13,17.71-2.04,1,34.01,1.79,67.02-.11,101.29l34.64-4.55c-.73,10.75-1.26,20.6-1.37,30.89-1,1.03-3.42.83-4.45,1.09Z"/>
              <path class="cls-2" d="M186.83,167.62c-.03.54-.07,2.08-.88,2.25l-24.95,5.05c.09-.17-.18-2.29.61-2.46,8.58-1.9,16.9-3.44,25.22-4.84Z"/>
            </g>
          </g>
          <g>
            <g>
              <path class="cls-4" d="M916,161.79c-17.85,56.68-67.19,84.02-120.09,102.88,4.07-23.13,6.6-69.38,1.09-92.92,39.04,2.91,81.8.44,119.01-12.96v3Z"/>
              <path class="cls-4" d="M783.1,169.78c.22,8.51-.14,17.65-3.96,25.93-1.08-7.26-2.43-13.15-8.13-17.31-2.85,6.68-4.52,12.62-6.28,19.28l-20.65,77.99-36.05,4.97-19.99,2.3-14.03.72c11.96-3.99,24.29-6.59,35.67-13.3,7.46-4.4,14.89-9.16,19.35-16.72,6.8-11.5.06-51.3-2.18-65.73-1.77-11.46-4.73-22.12-5.84-33.1,19.76,7.97,40.92,12.88,62.1,14.98Z"/>
              <path class="cls-1" d="M719,147.81c0,.33-.04.67,0,1h1c-.53,2.09.81,4.13,1,5.99,1.11,10.98,4.07,21.64,5.84,33.1,2.23,14.43,8.98,54.23,2.18,65.73-4.47,7.56-11.9,12.32-19.35,16.72-11.38,6.72-23.71,9.32-35.67,13.3l-13.87,2.1c.35-14.5-3.81-28.28-7.97-42.05l36.77,5.27c9.6,1.37,18.87,1.83,28.29.17,5.33-.94,7.99-4.11,8.59-9.74,1.7-15.84.49-31.61-1.5-47.66l-5.32-42.93c-.35,4.81-2.79-14.58-1.13-9.99,1,2.84,1.21,6.04,1.13,8.99Z"/>
            </g>
            <g>
              <path class="cls-5" d="M515.88,122.84c1.5.56,4.97-.62,6.21,1.11l27.89,48.02c1.36-2.05.77-4.2.92-6.09l3-39.07c.18-2.4,1.71-2.29,2.9-2.2,2.95.58,6.05-.18,9.5,1.15l-5.08,78.82c-.19,3.17-7.57,3.49-9.1,1.05l-27.32-43.86c-.92-1.47-.82-3.74-2.47-4.95l-4.79,48.03c.93,3.92-9.5,2.34-13.56,2.85l8.69-81.04c.16-1.47.08-2.62,1.12-3.39.46-.34,1.51-.22,2.1-.42Z"/>
              <path class="cls-2" d="M561.21,204.57l5.08-78.82c-3.44-1.33-6.54-.57-9.5-1.15-.61-3.21,9.61-1.23,12.49-.9l-4.95,78.23c-.08,1.19-.11,2.05-.94,2.49-.59.31-1.43.24-2.17.16Z"/>
              <path class="cls-2" d="M550.9,165.87c-.15,1.9.45,4.04-.92,6.09l-27.89-48.02c-1.24-1.72-4.71-.55-6.21-1.11-.85-3.23,8.58-1.77,9.05-1.01,9.12,14.75,16.23,30.25,25.96,44.04Z"/>
              <path class="cls-2" d="M524.79,161.76l-4.44,42.55c-.09.84-2.67.56-2.82.53l4.79-48.03c1.64,1.21,1.55,3.48,2.47,4.95Z"/>
            </g>
            <g>
              <path class="cls-5" d="M663,136.68c11.39-.82,23.08,4.19,31.8,11.63-1.38,4.89-4.43,7.25-4.89,11.14-1.44,1.38-2.55.83-4.33-.23-7.26-4.31-16.19-7.37-23.85-4.4-1.04.4-2.35.84-2.7,1.69-2.5,5.95,20.51,5.78,33.56,20.64,6.88,7.83,6.92,18.24.54,25.79-15.81,11.27-38.35,4.8-52.6-7.02.94-2.61,6.64-14.79,8.6-13.14,4.81,5.82,30.7,12.77,34.82,6.86,4.6-6.61-22-8.44-32.64-19.24-5.37-5.45-6.91-13.81-3.83-21.34,2.08-5.07,8.68-11.89,15.52-12.38Z"/>
              <path class="cls-2" d="M661.73,154.82c-1.68,4.67,13.49,7.05,22.91,12.46,6.19,3.55,11.95,8.42,14.59,14.69,3.78,8.97.59,16.2-6.1,20.97,6.38-7.56,6.34-17.97-.54-25.79-13.06-14.86-36.06-14.69-33.56-20.64.36-.85,1.66-1.29,2.7-1.69Z"/>
              <path class="cls-2" d="M689.91,159.46c.46-3.89,3.5-6.26,4.89-11.14-8.71-7.44-20.41-12.46-31.8-11.63,8.71-4.3,27.31,3.09,34.58,10.41-1.39,4.19-3.76,7.22-5.47,11.03-.48,1.07-1.73.89-2.2,1.34Z"/>
              <path class="cls-2" d="M683.95,189.64c-4.12,5.91-30.01-1.04-34.82-6.86.49-.42,1-1.27,1.65-1.4.69-.13,1.21.24,1.94.71,9.5,6.17,20.38,8.99,31.23,7.54Z"/>
            </g>
            <g>
              <path class="cls-5" d="M470.32,122.95c3.6,1.06,7.29-.29,11.91.23l15.76,82.65c.58,3.55-11.58,2.61-14.59,2.7l-3.25-16.55c-9.65.56-18.45.96-27.13,2.14-3.57.48-6.81,12.03-8.14,15.64.04,3.45-11.97,3.77-15.61,3.45l20.23-47,17.93-41.89c.51-1.19,2.43-.85,2.88-1.37ZM476.75,170.57c-1.21-6.37-1.65-12.96-3.91-19.7-.49-1.47.39-3.16-.42-5.21l-11.58,27.5c-1.44.8,22.05-.28,15.91-2.58Z"/>
              <path class="cls-2" d="M497.99,205.83l-15.76-82.65c-4.62-.52-8.3.83-11.91-.23-.74-3.03,12.38-1.75,15.17-1.81l15.55,84.18c-1.41.74-2.26.55-3.05.51Z"/>
              <path class="cls-2" d="M453.02,194.11l-4.97,12.84c-.74,1.92-1.62,2.59-3.17,2.8,1.33-3.61,4.57-15.15,8.14-15.64Z"/>
              <path class="cls-4" d="M476.75,170.57c-3.8.11-7.35.62-12.47.14,2.92-7.03,5.05-13.75,8.56-19.85,2.26,6.75,2.69,13.33,3.91,19.7Z"/>
              <path class="cls-2" d="M472.84,150.87c-3.51,6.1-5.65,12.82-8.56,19.85,5.12.48,8.67-.04,12.47-.14,6.14,2.3-17.35,3.38-15.91,2.58l11.58-27.5c.81,2.06-.07,3.74.42,5.21Z"/>
            </g>
            <path class="cls-4" d="M611.26,185.2c-7.48,2.3-15.66-.54-20.49-5.92-7.11-7.9-5.71-15.49-3.46-25.1,5.31-6.1,13.79-8.4,21.46-5.82s13.03,9.52,13.58,17.58-3.83,15.67-11.08,19.25Z"/>
            <g>
              <path class="cls-5" d="M621.05,198.8c-11.49,10.6-32.41,11.22-43.36-4.9-15.63-23-7.33-55.09,17.31-65.19,2.17.86,4.58-.79,6.96-.75,12.93.25,22.49,8.76,28.08,19.83,9.02,17.86,5.34,37.8-8.99,51.01ZM587.3,154.19c-6.26,7.18-6.57,17.78-.75,25.32s16.16,9.93,24.71,5.7c7.25-3.59,11.63-11.19,11.08-19.25s-5.91-15.01-13.58-17.58-16.14-.28-21.46,5.82Z"/>
              <path class="cls-2" d="M621.05,198.8c14.33-13.21,18-33.15,8.99-51.01-5.59-11.07-15.15-19.58-28.08-19.83-2.38-.05-4.78,1.6-6.96.75,10.59-4.34,22.61-1.83,30.92,7.39,16.96,18.83,16.15,48.68-4.87,62.7Z"/>
              <path class="cls-2" d="M587.3,154.19c-2.25,9.61-3.64,17.2,3.46,25.1,4.84,5.38,13.01,8.21,20.49,5.92-8.54,4.22-18.88,1.84-24.71-5.7s-5.51-18.14.75-25.32Z"/>
            </g>
          </g>
        </g>
      </g>
    </g>
  </g>
</svg>